<?xml version="1.0" encoding="UTF-8"?>
<svg version="1.1" xmlns="http://www.w3.org/2000/svg" width="512" height="512">
<path d="M0 0 C54.12 0 108.24 0 164 0 C164.0825 18.541875 164.165 37.08375 164.25 56.1875 C164.28641602 62.02074951 164.32283203 67.85399902 164.36035156 73.86401367 C164.37841797 81.04162598 164.37841797 81.04162598 164.3817749 84.41230774 C164.38787747 86.74343427 164.40186252 89.07454896 164.42230225 91.40559387 C164.60044539 112.81028131 162.6388824 128.48232171 147.40625 144.6796875 C138.35962058 153.40322301 125.85377385 160.13388699 113.03924561 160.12025452 C111.54479479 160.12232076 111.54479479 160.12232076 110.02015305 160.12442875 C108.92907871 160.12083064 107.83800438 160.11723253 106.71386719 160.11352539 C105.54374714 160.11364593 104.37362709 160.11376646 103.16804886 160.11389065 C99.37763829 160.11314383 95.58727679 160.10552601 91.796875 160.09765625 C89.45784529 160.09618612 87.11881526 160.09516585 84.77978516 160.09460449 C76.10318509 160.08935986 67.42659206 160.07539869 58.75 160.0625 C29.66875 160.0315625 29.66875 160.0315625 0 160 C0 107.2 0 54.4 0 0 Z " fill="#FFB13B" transform="translate(348,352)"/>
<path d="M0 0 C19.201875 -0.0825 38.40375 -0.165 58.1875 -0.25 C67.25061646 -0.30462402 67.25061646 -0.30462402 76.49682617 -0.36035156 C83.92834473 -0.37841797 83.92834473 -0.37841797 87.41767883 -0.3817749 C89.83213762 -0.3878796 92.24658492 -0.40186917 94.66096497 -0.42230225 C116.36508232 -0.59665434 132.24403013 1.13701893 148.6796875 16.59375 C157.34300924 25.57793551 164.13428694 38.06746285 164.12025452 50.80889893 C164.12232076 52.25297056 164.12232076 52.25297056 164.12442875 53.72621536 C164.12083064 54.77981625 164.11723253 55.83341713 164.11352539 56.91894531 C164.11364593 58.04941662 164.11376646 59.17988792 164.11389065 60.34461594 C164.11314395 64.0058056 164.10552672 67.66694443 164.09765625 71.328125 C164.09618608 73.58772762 164.09516583 75.84733057 164.09460449 78.10693359 C164.08936033 86.48796092 164.07539914 94.86898096 164.0625 103.25 C164.041875 121.9775 164.02125 140.705 164 160 C109.88 160 55.76 160 0 160 C0 107.2 0 54.4 0 0 Z " fill="#FFB13B" transform="translate(348,0)"/>
<path d="M0 0 C51.48 0 102.96 0 156 0 C156 52.8 156 105.6 156 160 C138.118125 160.0825 120.23625 160.165 101.8125 160.25 C96.18807861 160.28641602 90.56365723 160.32283203 84.76879883 160.36035156 C77.84509277 160.37841797 77.84509277 160.37841797 74.59306335 160.3817749 C72.34526899 160.38787518 70.09748686 160.40185536 67.84977722 160.42230225 C46.74793465 160.6044904 31.27523291 158.41087735 15.3203125 143.40625 C6.65699076 134.42206449 -0.13428694 121.93253715 -0.12025452 109.19110107 C-0.12232076 107.74702944 -0.12232076 107.74702944 -0.12442875 106.27378464 C-0.12083064 105.22018375 -0.11723253 104.16658287 -0.11352539 103.08105469 C-0.11364593 101.95058338 -0.11376646 100.82011208 -0.11389065 99.65538406 C-0.11314395 95.9941944 -0.10552672 92.33305557 -0.09765625 88.671875 C-0.09618608 86.41227238 -0.09516583 84.15266943 -0.09460449 81.89306641 C-0.08936033 73.51203908 -0.07539914 65.13101904 -0.0625 56.75 C-0.0315625 28.65875 -0.0315625 28.65875 0 0 Z " fill="#FFB13B" transform="translate(0,352)"/>
<path d="M0 0 C0.9291283 -0.0013775 1.85825661 -0.00275499 2.81554031 -0.00417423 C3.83166775 -0.00057612 4.84779518 0.00302198 5.89471436 0.00672913 C7.5309482 0.00654832 7.5309482 0.00654832 9.20023727 0.00636387 C12.73220608 0.00711042 16.26412217 0.01472702 19.79608154 0.02259827 C21.97625707 0.02406848 24.15643294 0.0250887 26.33660889 0.02565002 C34.42206349 0.03089369 42.50751053 0.04485488 50.59295654 0.05775452 C77.69420654 0.08869202 77.69420654 0.08869202 105.34295654 0.12025452 C105.34295654 52.92025452 105.34295654 105.72025452 105.34295654 160.12025452 C53.86295654 160.12025452 2.38295654 160.12025452 -50.65704346 160.12025452 C-50.73954346 141.57837952 -50.82204346 123.03650452 -50.90704346 103.93275452 C-50.94345947 98.099505 -50.97987549 92.26625549 -51.01739502 86.25624084 C-51.03546143 79.07862854 -51.03546143 79.07862854 -51.03881836 75.70794678 C-51.04492092 73.37682024 -51.05890597 71.04570555 -51.0793457 68.71466064 C-51.25748885 47.3099732 -49.29592586 31.6379328 -34.06329346 15.44056702 C-25.14165515 6.83755865 -12.66808467 -0.01446128 0 0 Z " fill="#FFB13B" transform="translate(50.65704345703125,-0.1202545166015625)"/>
<path d="M0 0 C54.12 0 108.24 0 164 0 C164 44.22 164 88.44 164 134 C109.88 134 55.76 134 0 134 C0 89.78 0 45.56 0 0 Z " fill="#FF9500" transform="translate(348,189)"/>
<path d="M0 0 C44.22 0 88.44 0 134 0 C134 52.8 134 105.6 134 160 C89.78 160 45.56 160 0 160 C0 107.2 0 54.4 0 0 Z " fill="#FF9500" transform="translate(185,352)"/>
<path d="M0 0 C44.22 0 88.44 0 134 0 C134 52.8 134 105.6 134 160 C89.78 160 45.56 160 0 160 C0 107.2 0 54.4 0 0 Z " fill="#FF9500" transform="translate(185,0)"/>
<path d="M0 0 C51.48 0 102.96 0 156 0 C156 44.22 156 88.44 156 134 C104.52 134 53.04 134 0 134 C0 89.78 0 45.56 0 0 Z " fill="#FF9500" transform="translate(0,189)"/>
<path d="M0 0 C44.22 0 88.44 0 134 0 C134 44.22 134 88.44 134 134 C89.78 134 45.56 134 0 134 C0 89.78 0 45.56 0 0 Z " fill="#FFB13B" transform="translate(185,189)"/>
</svg>
