<?xml version="1.0" encoding="UTF-8"?>
<svg version="1.1" xmlns="http://www.w3.org/2000/svg" width="594" height="330">
<path d="M0 0 C196.02 0 392.04 0 594 0 C594 108.9 594 217.8 594 330 C397.98 330 201.96 330 0 330 C0 221.1 0 112.2 0 0 Z " fill="#4B4B4B" transform="translate(0,0)"/>
<path d="M0 0 C0.66 0 1.32 0 2 0 C3.15455308 23.83406345 -4.09819428 39.95535536 -15.80957031 60.18408203 C-17.71356516 63.47608646 -19.51576578 66.8106569 -21.2734375 70.18359375 C-22.14004093 71.83103654 -23.00716284 73.47820678 -23.875 75.125 C-24.24818359 75.84067139 -24.62136719 76.55634277 -25.00585938 77.29370117 C-27.44592139 81.71773354 -27.44592139 81.71773354 -30.0703125 83.0546875 C-32 83 -32 83 -35 81 C-38.12521833 80.83300768 -38.12521833 80.83300768 -41 81 C-41.433125 79.8553125 -41.433125 79.8553125 -41.875 78.6875 C-42.96269013 75.84970692 -42.96269013 75.84970692 -45 73 C-44.75373632 67.70533092 -42.48732301 63.55816403 -40 59 C-40.845625 58.79375 -41.69125 58.5875 -42.5625 58.375 C-48.0733052 56.17067792 -51.82082525 52.96529124 -54.875 47.875 C-57.05751457 42.29746276 -58.17693106 36.78603125 -56.3515625 30.9140625 C-53.51316625 24.58225547 -48.52171438 19.54335194 -42 17 C-38.94140625 16.734375 -38.94140625 16.734375 -35.5625 16.75 C-34.45003906 16.74484375 -33.33757813 16.7396875 -32.19140625 16.734375 C-29.052991 16.99558949 -26.83164575 17.66621546 -24 19 C-24 19.66 -24 20.32 -24 21 C-25.175625 20.7525 -25.175625 20.7525 -26.375 20.5 C-33.99199144 19.44938049 -42.10082391 19.01513105 -49 23 C-50.17081885 24.90412923 -50.17081885 24.90412923 -51 27 C-51.66 27.99 -52.32 28.98 -53 30 C-54.85101238 36.66364456 -54.51027187 42.1724892 -51.20703125 48.20703125 C-48.69874667 51.9329297 -45.13151094 54.34739563 -41 56 C-40.01 56 -39.02 56 -38 56 C-34.24360038 50.85282267 -32.60141538 47.12676628 -33.3125 40.6875 C-33.47363281 39.70136719 -33.63476562 38.71523437 -33.80078125 37.69921875 C-34.01884536 34.74466382 -33.56405139 33.46616343 -32 31 C-31.34 31 -30.68 31 -30 31 C-30 30.34 -30 29.68 -30 29 C-28.845 28.649375 -27.69 28.29875 -26.5 27.9375 C-21.16170181 25.35323551 -19.32342107 20.73695618 -16.96679688 15.57202148 C-14.09240071 9.44854208 -10.21236936 5.95963695 -4.1875 2.75 C-1.22193017 1.31510793 -1.22193017 1.31510793 0 0 Z " fill="#EAEAEA" transform="translate(84,126)"/>
<path d="M0 0 C0.66 0.33 1.32 0.66 2 1 C1.67 1.33 1.34 1.66 1 2 C3.475 2.99 3.475 2.99 6 4 C6 5.65 6 7.3 6 9 C3 8 -0 7 -3 6 C-3.33 6.66 -3.66 7.32 -4 8 C-2.68 8.33 -1.36 8.66 0 9 C-0.6168595 13.89299417 -2.71922643 17.74794428 -4.97265625 22.0546875 C-5.37399277 22.83329132 -5.77532928 23.61189514 -6.18882751 24.41409302 C-7.47426329 26.90410529 -8.76833812 29.38951396 -10.0625 31.875 C-10.90614649 33.50752967 -11.74925056 35.14033976 -12.59179688 36.7734375 C-17.64854095 46.55818752 -22.79018776 56.29596416 -28 66 C-28.66 66 -29.32 66 -30 66 C-30 66.66 -30 67.32 -30 68 C-30.99 68.495 -30.99 68.495 -32 69 C-30.02 69.99 -28.04 70.98 -26 72 C-26.99 72.495 -26.99 72.495 -28 73 C-28 73.66 -28 74.32 -28 75 C-30.475 75.495 -30.475 75.495 -33 76 C-33.433125 74.8553125 -33.433125 74.8553125 -33.875 73.6875 C-34.96269013 70.84970692 -34.96269013 70.84970692 -37 68 C-36.75373632 62.70533092 -34.48732301 58.55816403 -32 54 C-32.845625 53.79375 -33.69125 53.5875 -34.5625 53.375 C-40.0733052 51.17067792 -43.82082525 47.96529124 -46.875 42.875 C-49.05751457 37.29746276 -50.17693106 31.78603125 -48.3515625 25.9140625 C-45.51316625 19.58225547 -40.52171438 14.54335194 -34 12 C-30.94140625 11.734375 -30.94140625 11.734375 -27.5625 11.75 C-26.45003906 11.74484375 -25.33757813 11.7396875 -24.19140625 11.734375 C-21.052991 11.99558949 -18.83164575 12.66621546 -16 14 C-16 14.66 -16 15.32 -16 16 C-16.78375 15.835 -17.5675 15.67 -18.375 15.5 C-25.99199144 14.44938049 -34.10082391 14.01513105 -41 18 C-42.17081885 19.90412923 -42.17081885 19.90412923 -43 22 C-43.66 22.99 -44.32 23.98 -45 25 C-46.85101238 31.66364456 -46.51027187 37.1724892 -43.20703125 43.20703125 C-40.69874667 46.9329297 -37.13151094 49.34739563 -33 51 C-32.01 51 -31.02 51 -30 51 C-26.24360038 45.85282267 -24.60141538 42.12676628 -25.3125 35.6875 C-25.47363281 34.70136719 -25.63476562 33.71523437 -25.80078125 32.69921875 C-26.01884536 29.74466382 -25.56405139 28.46616343 -24 26 C-23.34 26 -22.68 26 -22 26 C-22 25.34 -22 24.68 -22 24 C-20.845 23.649375 -19.69 23.29875 -18.5 22.9375 C-13.16170181 20.35323551 -11.32342107 15.73695618 -8.96679688 10.57202148 C-6.70724376 5.75837501 -4.29656831 3.15852543 0 0 Z " fill="#E8E8E8" transform="translate(76,131)"/>
<path d="M0 0 C2.01226479 0 4.02767812 -0.0019125 6.03515625 -0.140625 C11.476168 -0.43416706 11.476168 -0.43416706 13.734375 1.4375 C15.65303607 5.3221965 15.3174849 8.98382901 15.1875 13.25 C15.16719727 14.51070312 15.16719727 14.51070312 15.14648438 15.796875 C15.11123464 17.86485938 15.0574302 19.93251271 15 22 C12.125 22.625 12.125 22.625 9 23 C7 21 7 21 6.8046875 17.5234375 C6.81798507 16.14049032 6.84183768 14.75761346 6.875 13.375 C6.88402344 12.66859375 6.89304687 11.9621875 6.90234375 11.234375 C6.92592397 9.48943902 6.96179539 7.74467705 7 6 C5.68 6.33 4.36 6.66 3 7 C2.67 12.28 2.34 17.56 2 23 C-0.31 23 -2.62 23 -5 23 C-5 17.39 -5 11.78 -5 6 C-6.32 6.33 -7.64 6.66 -9 7 C-9.33 12.28 -9.66 17.56 -10 23 C-12.31 23 -14.62 23 -17 23 C-17 15.41 -17 7.82 -17 0 C-14 0 -11 0 -8 0 C-5.13303368 -1.43348316 -3.10697549 -0.55925559 0 0 Z " fill="#F3F3F3" transform="translate(463,161)"/>
<path d="M0 0 C1.65 0 3.3 0 5 0 C5.33 0.99 5.66 1.98 6 3 C6.515625 2.67 7.03125 2.34 7.5625 2 C11.41040156 0.42137372 15.2582588 0.516183 19.25 1.625 C19.8275 1.74875 20.405 1.8725 21 2 C21.99 1.34 22.98 0.68 24 0 C27.0625 0.1875 27.0625 0.1875 30 1 C32.03685604 4.05528405 32.2790347 4.92837386 32.44921875 8.4140625 C32.49240234 9.25710937 32.53558594 10.10015625 32.58007812 10.96875 C32.61552734 11.8453125 32.65097656 12.721875 32.6875 13.625 C32.73455078 14.50929687 32.78160156 15.39359375 32.83007812 16.3046875 C33.05545596 21.12260054 33.05545596 21.12260054 33 23 C32 24 32 24 29 24.125 C26 24 26 24 25 23 C24.92680379 20.30345146 24.90757463 17.63308542 24.9375 14.9375 C24.94201172 14.17888672 24.94652344 13.42027344 24.95117188 12.63867188 C24.9629932 10.75908129 24.98092922 8.87953101 25 7 C23.68 7.33 22.36 7.66 21 8 C20.67 13.28 20.34 18.56 20 24 C17.69 24 15.38 24 13 24 C12.67 18.39 12.34 12.78 12 7 C10.35 7.33 8.7 7.66 7 8 C7 13.28 7 18.56 7 24 C4.69 24 2.38 24 0 24 C0 16.08 0 8.16 0 0 Z " fill="#F3F3F3" transform="translate(193,160)"/>
<path d="M0 0 C2.475 0.495 2.475 0.495 5 1 C7.5000868 1 10.00031171 0.98213729 12.5 0.9375 C15.30573126 0.98760234 17.3435308 1.28479675 20 2 C20.33 1.67 20.66 1.34 21 1 C26.8410596 0.62913907 26.8410596 0.62913907 29 1 C31.03685604 4.05528405 31.2790347 4.92837386 31.44921875 8.4140625 C31.49240234 9.25710937 31.53558594 10.10015625 31.58007812 10.96875 C31.63325195 12.28359375 31.63325195 12.28359375 31.6875 13.625 C31.73455078 14.50929687 31.78160156 15.39359375 31.83007812 16.3046875 C32.05545596 21.12260054 32.05545596 21.12260054 32 23 C31 24 31 24 28.5625 24.1875 C26 24 26 24 24 22 C23.85502015 19.41935871 23.81322455 16.95056116 23.875 14.375 C23.88402344 13.66859375 23.89304687 12.9621875 23.90234375 12.234375 C23.92592397 10.48943902 23.96179539 8.74467705 24 7 C22.68 7.33 21.36 7.66 20 8 C19.67 13.28 19.34 18.56 19 24 C16.69 24 14.38 24 12 24 C12 18.39 12 12.78 12 7 C10.68 7.33 9.36 7.66 8 8 C7.67 13.28 7.34 18.56 7 24 C4.69 24 2.38 24 0 24 C0 16.08 0 8.16 0 0 Z " fill="#F5F5F5" transform="translate(409,160)"/>
<path d="M0 0 C1.98 0 3.96 0 6 0 C7 1 7 1 7.09765625 3.50390625 C7.08605469 4.51324219 7.07445312 5.52257812 7.0625 6.5625 C7.05347656 7.57441406 7.04445312 8.58632812 7.03515625 9.62890625 C7.02355469 10.41136719 7.01195312 11.19382813 7 12 C7.66 11.67 8.32 11.34 9 11 C14.14585012 10.41901692 14.14585012 10.41901692 17 11 C20.24606085 14.24606085 20.92340739 16.39683322 21.5 20.9375 C21.24519793 25.51515099 19.71606082 28.32964754 17 32 C12.90011594 34.61937037 8.71813586 34.22467314 4 34 C2.68 33.67 1.36 33.34 0 33 C0 22.11 0 11.22 0 0 Z " fill="#F1F1F1" transform="translate(230,150)"/>
<path d="M0 0 C3.1875 1.5 3.1875 1.5 5 4 C5.6788694 6.7363659 5.8578158 9.15631595 6 12 C3.69 12.33 1.38 12.66 -1 13 C-1.66 11.02 -2.32 9.04 -3 7 C-4.99954746 6.95745644 -7.00041636 6.95919217 -9 7 C-10.92578255 8.92578255 -10.17443944 12.32035408 -10.1875 14.875 C-10.20876953 16.75832031 -10.20876953 16.75832031 -10.23046875 18.6796875 C-10.26609042 22.13793042 -10.26609042 22.13793042 -8 25 C-1.93735778 24.33735914 -1.93735778 24.33735914 4 23 C4.66 24.65 5.32 26.3 6 28 C1.13151879 31.38676954 -2.58261498 32.75543454 -8.55859375 32.52734375 C-12.67493382 31.63821429 -15.4137198 29.25064575 -18 26 C-20.11678227 19.64965318 -20.43891276 11.48887068 -17.859375 5.234375 C-13.19069848 -1.06607195 -7.36550603 -1.37907347 0 0 Z " fill="#F3F3F3" transform="translate(375,152)"/>
<path d="M0 0 C2.15502713 1.88564874 3.19206557 3.00302293 4 5.75 C3.47368421 10.27631579 3.47368421 10.27631579 2 11.75 C0.33382885 11.79063832 -1.33388095 11.792721 -3 11.75 C-3.66 9.77 -4.32 7.79 -5 5.75 C-7.91634129 5.4997843 -7.91634129 5.4997843 -11 5.75 C-13.82568832 9.98853249 -13.5470094 13.77142171 -13 18.75 C-11.68772566 21.78465702 -11.68772566 21.78465702 -10 23.75 C-5.29415446 23.14872591 -5.29415446 23.14872591 -0.6875 22.0625 C-0.130625 21.959375 0.42625 21.85625 1 21.75 C1.66 22.41 2.32 23.07 3 23.75 C2.9375 25.6875 2.9375 25.6875 2 27.75 C-1.88797861 31.37878004 -6.33702048 31.30531172 -11.40234375 31.17578125 C-15.22413199 30.5493528 -16.78142156 28.82738299 -19 25.75 C-21.49398079 22.00902881 -21.29925803 19.90004478 -21.3125 15.4375 C-21.33763672 13.49423828 -21.33763672 13.49423828 -21.36328125 11.51171875 C-20.89191602 6.63080781 -19.59284717 3.19804288 -15.9375 -0.125 C-10.64077425 -2.15353327 -5.24175977 -2.18406657 0 0 Z " fill="#F4F4F4" transform="translate(137,153.25)"/>
<path d="M0 0 C1.98 0 3.96 0 6 0 C7.26237731 2.52475462 7.09856404 4.31200466 7.0625 7.125 C7.05347656 8.03507813 7.04445312 8.94515625 7.03515625 9.8828125 C7.02355469 10.58148438 7.01195312 11.28015625 7 12 C7.60714844 11.66613281 8.21429688 11.33226562 8.83984375 10.98828125 C11.67916473 9.68927907 13.07075655 10.02358552 16 11 C18.03681245 12.6047427 18.89368895 13.50932469 19.44824219 16.06884766 C19.48079102 16.84276855 19.51333984 17.61668945 19.546875 18.4140625 C19.58683594 19.25710937 19.62679687 20.10015625 19.66796875 20.96875 C19.69503906 21.8453125 19.72210938 22.721875 19.75 23.625 C19.79253906 24.50929687 19.83507812 25.39359375 19.87890625 26.3046875 C20.07504157 31.04099226 20.07504157 31.04099226 20 33 C19 34 19 34 16.5625 34.1875 C14 34 14 34 12 32 C11.85502015 29.41935871 11.81322455 26.95056116 11.875 24.375 C11.88402344 23.66859375 11.89304688 22.9621875 11.90234375 22.234375 C11.92592397 20.48943902 11.96179539 18.74467705 12 17 C10.68 17.33 9.36 17.66 8 18 C7.67 23.28 7.34 28.56 7 34 C4.69 34 2.38 34 0 34 C0 22.78 0 11.56 0 0 Z " fill="#F2F2F2" transform="translate(145,150)"/>
<path d="M0 0 C5.38198674 2.03093839 5.38198674 2.03093839 7.1484375 4.80078125 C9.05057698 9.71318735 8.77560191 15.22719563 6.6875 20 C4.69754124 22.35846964 3.00750322 23.82076254 -0.0859375 24.37109375 C-4.54279615 24.50038828 -6.3794666 24.49125561 -10 21.625 C-12.661765 18.13143343 -13.15541992 16.44939417 -13.1875 12.125 C-13.20167969 11.26132813 -13.21585937 10.39765625 -13.23046875 9.5078125 C-12.90233542 5.93727693 -11.78218851 3.81115845 -9.3125 1.25 C-6.01471597 -0.53258596 -3.70366004 -0.38313725 0 0 Z " fill="#F2F2F2" transform="translate(318,160)"/>
<path d="M0 0 C2.8100346 1.79363911 4.50940468 3.01880935 6 6 C6.93762008 16.40604586 6.93762008 16.40604586 4.125 21.1875 C0.79619687 24.02677326 -1.5680664 24.33290394 -5.9609375 24.29296875 C-9.13134567 23.83745033 -10.8192402 22.24684343 -13 20 C-15.08540153 15.82919693 -14.45427114 10.54271136 -14 6 C-10.55138319 0.13735141 -6.62053428 -0.95122619 0 0 Z " fill="#F3F3F3" transform="translate(398,160)"/>
<path d="M0 0 C3.68498762 2.7650778 4.86443954 4.32287889 5.77734375 8.8828125 C5.85496333 10.29575197 5.90786478 11.71024048 5.9375 13.125 C5.97939453 13.84042969 6.02128906 14.55585938 6.06445312 15.29296875 C6.22516826 19.11441747 6.1725038 20.74124431 4 24 C3.05125 23.814375 2.1025 23.62875 1.125 23.4375 C-1.89868793 22.71313368 -1.89868793 22.71313368 -4 24 C-7.87424565 24.35872645 -10.14933906 24.56710729 -13.4375 22.375 C-15.48491197 19.2629338 -15.68551032 17.65605504 -15 14 C-12.83746443 11.43198901 -11.2778092 10.14644024 -7.88671875 9.7578125 C-5.92283161 9.75083599 -3.95940162 9.86715921 -2 10 C-2.33 9.01 -2.66 8.02 -3 7 C-6.3 7 -9.6 7 -13 7 C-13 5.35 -13 3.7 -13 2 C-8.93854526 -0.03072737 -4.45960657 -1.20781011 0 0 Z " fill="#F2F2F2" transform="translate(183,160)"/>
<path d="M0 0 C3 1.875 3 1.875 5 5 C5.40534963 8.44810396 5.2329094 11.50635903 5 15 C1.04 15 -2.92 15 -7 15 C-6.01 16.485 -6.01 16.485 -5 18 C-2.79274927 18.36362818 -2.79274927 18.36362818 -0.375 18.1875 C0.44226563 18.16042969 1.25953125 18.13335937 2.1015625 18.10546875 C3.04128906 18.05326172 3.04128906 18.05326172 4 18 C3.625 20.4375 3.625 20.4375 3 23 C0.56045342 24.21977329 -1.15305849 24.20153813 -3.875 24.25 C-4.73867188 24.27578125 -5.60234375 24.3015625 -6.4921875 24.328125 C-9.51033741 23.93322688 -10.8186724 23.09329196 -13 21 C-14.6323191 16.10304271 -14.51721485 11.11008267 -14 6 C-10.57838376 0.1832524 -6.59566543 -1.05934206 0 0 Z " fill="#F2F2F2" transform="translate(558,160)"/>
<path d="M0 0 C3.32947103 0.07185909 4.28412344 0.39632715 7.25 2.25 C10.15730402 6.79266252 9.60547764 10.04283543 9.25 15.375 C5.62 15.375 1.99 15.375 -1.75 15.375 C-1.42 16.365 -1.09 17.355 -0.75 18.375 C2.22 18.375 5.19 18.375 8.25 18.375 C8.58 19.695 8.91 21.015 9.25 22.375 C4.68862229 24.98752119 0.39269323 25.27227119 -4.75 24.375 C-8.54093199 21.64552897 -8.54093199 21.64552897 -9.75 18.375 C-10.50120157 13.73633031 -11.13493913 8.71116066 -8.65234375 4.5234375 C-7.3125 3.1875 -7.3125 3.1875 -4.75 1.375 C-3.75 0.375 -3.75 0.375 0 0 Z " fill="#F4F4F4" transform="translate(491.75,159.625)"/>
<path d="M0 0 C3.64008476 0.31575203 6.4218423 0.65356397 9.63671875 2.45703125 C11.94826756 6.57761826 11.31996459 10.35036022 11.07421875 15.01953125 C7.44421875 15.01953125 3.81421875 15.01953125 0.07421875 15.01953125 C0.40421875 16.00953125 0.73421875 16.99953125 1.07421875 18.01953125 C4.04421875 18.01953125 7.01421875 18.01953125 10.07421875 18.01953125 C10.40421875 19.66953125 10.73421875 21.31953125 11.07421875 23.01953125 C6.396252 24.32676907 1.89185216 24.79004128 -2.92578125 24.01953125 C-6.71671324 21.29006022 -6.71671324 21.29006022 -7.92578125 18.01953125 C-8.67698282 13.38086156 -9.31072038 8.35569191 -6.828125 4.16796875 C-5.48828125 2.83203125 -5.48828125 2.83203125 -2.92578125 1.01953125 C-1.92578125 0.01953125 -1.92578125 0.01953125 0 0 Z " fill="#F2F2F2" transform="translate(261.92578125,159.98046875)"/>
<path d="M0 0 C0.33 1.32 0.66 2.64 1 4 C-1.31 4.66 -3.62 5.32 -6 6 C-6.33 7.65 -6.66 9.3 -7 11 C-5.02 11 -3.04 11 -1 11 C-1 12.65 -1 14.3 -1 16 C-2.65 16 -4.3 16 -6 16 C-6 21.94 -6 27.88 -6 34 C-8.64 34 -11.28 34 -14 34 C-14 28.06 -14 22.12 -14 16 C-15.32 16 -16.64 16 -18 16 C-18 14.02 -18 12.04 -18 10 C-16.68 10 -15.36 10 -14 10 C-14.0825 9.0925 -14.165 8.185 -14.25 7.25 C-14 4 -14 4 -12.625 1.625 C-8.5952124 -0.86963042 -4.61933486 -0.31735888 0 0 Z " fill="#EBEBEB" transform="translate(345,150)"/>
<path d="M0 0 C1.32 0.33 2.64 0.66 4 1 C3.3831405 5.89299417 1.28077357 9.74794428 -0.97265625 14.0546875 C-1.37399277 14.83329132 -1.77532928 15.61189514 -2.18882751 16.41409302 C-3.47426329 18.90410529 -4.76833812 21.38951396 -6.0625 23.875 C-6.90614649 25.50752967 -7.74925056 27.14033976 -8.59179688 28.7734375 C-13.64854095 38.55818752 -18.79018776 48.29596416 -24 58 C-25.32 58 -26.64 58 -28 58 C-27.59548141 51.47493923 -25.1031475 46.97945135 -21.875 41.375 C-20.79111505 39.44447675 -19.71056673 37.51207754 -18.6328125 35.578125 C-18.05176758 34.53591797 -17.47072266 33.49371094 -16.87207031 32.41992188 C-13.38407831 26.0480137 -10.07251854 19.58429138 -6.75 13.125 C-6.07538591 11.81557811 -5.4007446 10.50617024 -4.72607422 9.19677734 C-3.14816233 6.13249394 -1.57317432 3.06671882 0 0 Z " fill="#535353" transform="translate(72,139)"/>
<path d="M0 0 C2.9375 1.625 2.9375 1.625 5 4 C5.375 7.1875 5.375 7.1875 5 10 C4 11 4 11 1.4375 11.0625 C0.633125 11.041875 -0.17125 11.02125 -1 11 C-1 9.35 -1 7.7 -1 6 C-2.65 6.33 -4.3 6.66 -6 7 C-6.05399736 8.45792884 -6.09279177 9.91642712 -6.125 11.375 C-6.14820313 12.18710938 -6.17140625 12.99921875 -6.1953125 13.8359375 C-6.21370051 16.21342243 -6.21370051 16.21342243 -4 18 C-2.2675 17.7525 -2.2675 17.7525 -0.5 17.5 C1.2325 17.2525 1.2325 17.2525 3 17 C5 19 5 19 5 22 C0.52934514 24.30743476 -4.06718312 24.93124207 -9 24 C-12.78738926 20.4019802 -14.17306396 17.37606875 -14.375 12.25 C-14.3533442 8.50896062 -14.02882688 6.3433025 -11.625 3.4375 C-7.65891795 -0.24529048 -5.40322822 -0.4579007 0 0 Z " fill="#F0F0F0" transform="translate(536,160)"/>
<path d="M0 0 C0.66 0 1.32 0 2 0 C1.34 2.31 0.68 4.62 0 7 C-0.66 7 -1.32 7 -2 7 C-2.38285156 8.24136719 -2.38285156 8.24136719 -2.7734375 9.5078125 C-4.15257503 13.43440151 -5.83605302 17.12257463 -7.625 20.875 C-7.94984375 21.56335938 -8.2746875 22.25171875 -8.609375 22.9609375 C-9.40323472 24.64205219 -10.20119558 26.32122921 -11 28 C-10.01 28 -9.02 28 -8 28 C-9.08462242 33.68542333 -12.29794623 38.69611426 -14.94702148 43.7824707 C-15.93765824 45.68780435 -16.91739918 47.59847547 -17.89648438 49.50976562 C-18.52278599 50.71908764 -19.14971742 51.92808372 -19.77734375 53.13671875 C-20.34702881 54.23717529 -20.91671387 55.33763184 -21.50366211 56.47143555 C-23 59 -23 59 -25 60 C-25 58.68 -25 57.36 -25 56 C-26.98 56.495 -26.98 56.495 -29 57 C-27.62371507 52.51743703 -25.8449613 48.49832023 -23.69140625 44.3359375 C-23.36845078 43.70962936 -23.0454953 43.08332123 -22.7127533 42.43803406 C-21.66732508 40.41457171 -20.61524479 38.39466409 -19.5625 36.375 C-18.84106385 34.98368509 -18.11971014 33.59232742 -17.3984375 32.20092773 C-11.77128883 21.37163805 -5.9730661 10.64268769 0 0 Z " fill="#BABABA" transform="translate(79,143)"/>
<path d="M0 0 C0.66 0.33 1.32 0.66 2 1 C1.67 1.33 1.34 1.66 1 2 C2.65 2.66 4.3 3.32 6 4 C6 5.65 6 7.3 6 9 C3 8 0 7 -3 6 C-3.2271167 6.59425781 -3.4542334 7.18851563 -3.68823242 7.80078125 C-6.25064104 14.36994642 -9.13109446 20.70858091 -12.3125 27 C-12.76044922 27.93972656 -13.20839844 28.87945312 -13.66992188 29.84765625 C-17.03442354 36.46244737 -17.03442354 36.46244737 -19.91552734 38.06640625 C-21.85546875 38.625 -21.85546875 38.625 -25 39 C-25.2236337 37.58566794 -25.42826476 36.16832382 -25.625 34.75 C-25.74101563 33.96109375 -25.85703125 33.1721875 -25.9765625 32.359375 C-26.00319395 29.67847541 -25.36592084 28.27305911 -24 26 C-23.34 26 -22.68 26 -22 26 C-22 25.34 -22 24.68 -22 24 C-20.845 23.649375 -19.69 23.29875 -18.5 22.9375 C-13.16170181 20.35323551 -11.32342107 15.73695618 -8.96679688 10.57202148 C-6.70724376 5.75837501 -4.29656831 3.15852543 0 0 Z " fill="#DCDCDC" transform="translate(76,131)"/>
<path d="M0 0 C1.2077558 3.62326739 0.54311128 4.64146369 -1 8 C0.32 7.34 1.64 6.68 3 6 C2.38951058 10.2670101 0.88288197 13.45137027 -1.16796875 17.2265625 C-1.64391228 18.10905167 -1.64391228 18.10905167 -2.12947083 19.0093689 C-3.14270909 20.88462925 -4.16491944 22.75482075 -5.1875 24.625 C-5.85541491 25.85774953 -6.52273785 27.09082 -7.18945312 28.32421875 C-8.49477853 30.73804848 -9.8097476 33.14626998 -11.13037109 35.55175781 C-12.34443669 37.79091457 -13.53144364 40.04503398 -14.68603516 42.31542969 C-15.19827637 43.31219727 -15.71051758 44.30896484 -16.23828125 45.3359375 C-16.67825439 46.21556152 -17.11822754 47.09518555 -17.5715332 48.00146484 C-19 50 -19 50 -21.03198242 50.87353516 C-23 51 -23 51 -25.25 49.6875 C-25.8275 49.130625 -26.405 48.57375 -27 48 C-27 47.34 -27 46.68 -27 46 C-26.34 46 -25.68 46 -25 46 C-25 45.34 -25 44.68 -25 44 C-25.99 43.67 -26.98 43.34 -28 43 C-27.34 41.68 -26.68 40.36 -26 39 C-25.67 39.99 -25.34 40.98 -25 42 C-23.35 41.34 -21.7 40.68 -20 40 C-20 41.32 -20 42.64 -20 44 C-18.04242808 40.22822332 -16.08524552 36.45624493 -14.12841797 32.68408203 C-13.46315951 31.4018004 -12.79779611 30.11957322 -12.13232422 28.83740234 C-11.17387504 26.9907043 -10.21580782 25.14380852 -9.2578125 23.296875 C-8.6817627 22.18666992 -8.10571289 21.07646484 -7.51220703 19.93261719 C-6.32459991 17.62949534 -5.15091601 15.32159024 -4 13 C-4.99 13 -5.98 13 -7 13 C-4.29384966 3.40546697 -4.29384966 3.40546697 0 0 Z " fill="#EDEDED" transform="translate(75,158)"/>
<path d="M0 0 C5 0 5 0 8 2 C8.66 1.34 9.32 0.68 10 0 C13.125 -0.125 13.125 -0.125 16 0 C15.67 1.98 15.34 3.96 15 6 C13.02 6.66 11.04 7.32 9 8 C8.67 12.95 8.34 17.9 8 23 C5.69 23 3.38 23 1 23 C0.67 15.41 0.34 7.82 0 0 Z " fill="#F5F5F5" transform="translate(505,161)"/>
<path d="M0 0 C1.671549 0.30791692 3.33805547 0.64386903 5 1 C5.99 1 6.98 1 8 1 C8.33 0.67 8.66 0.34 9 0 C10.99958364 -0.04080783 13.00045254 -0.04254356 15 0 C14.67 1.98 14.34 3.96 14 6 C12.02 6.66 10.04 7.32 8 8 C7.67 12.95 7.34 17.9 7 23 C4.69 23 2.38 23 0 23 C-0.19588601 19.3545658 -0.38030536 15.7086421 -0.5625 12.0625 C-0.61857422 11.02158203 -0.67464844 9.98066406 -0.73242188 8.90820312 C-0.78076172 7.91884766 -0.82910156 6.92949219 -0.87890625 5.91015625 C-0.9260376 4.99371338 -0.97316895 4.07727051 -1.02172852 3.13305664 C-1 1 -1 1 0 0 Z " fill="#F3F3F3" transform="translate(278,161)"/>
<path d="M0 0 C1.11246094 -0.00515625 2.22492187 -0.0103125 3.37109375 -0.015625 C6.509509 0.24558949 8.73085425 0.91621546 11.5625 2.25 C11.5625 2.91 11.5625 3.57 11.5625 4.25 C10.77875 4.085 9.995 3.92 9.1875 3.75 C1.57050856 2.69938049 -6.53832391 2.26513105 -13.4375 6.25 C-14.60831885 8.15412923 -14.60831885 8.15412923 -15.4375 10.25 C-16.4275 11.735 -16.4275 11.735 -17.4375 13.25 C-19.28790691 19.91146488 -18.95931746 25.43600893 -15.6328125 31.4609375 C-12.37409901 36.33835835 -7.68998476 38.19020206 -2.4375 40.25 C-4.19140625 41.375 -4.19140625 41.375 -6.4375 42.25 C-11.97149076 40.31365333 -16.21480378 35.98925915 -19.4375 31.25 C-21.60734183 25.67040672 -22.60519911 19.96286365 -20.78515625 14.17578125 C-16.85252554 5.31470348 -9.68464955 -0.04478451 0 0 Z " fill="#CFCFCF" transform="translate(48.4375,142.75)"/>
<path d="M0 0 C0.66 0 1.32 0 2 0 C1.34 2.31 0.68 4.62 0 7 C-0.66 7 -1.32 7 -2 7 C-2.26554687 7.84820312 -2.53109375 8.69640625 -2.8046875 9.5703125 C-4.04440466 13.12740946 -5.52482616 16.46593399 -7.125 19.875 C-7.66382812 21.02742188 -8.20265625 22.17984375 -8.7578125 23.3671875 C-9.16773437 24.23601562 -9.57765625 25.10484375 -10 26 C-10.66 26 -11.32 26 -12 26 C-12.26731934 26.86512207 -12.53463867 27.73024414 -12.81005859 28.62158203 C-13.98462351 31.95634389 -15.39496766 34.92768359 -17.0390625 38.0546875 C-17.61914062 39.16328125 -18.19921875 40.271875 -18.796875 41.4140625 C-19.40015625 42.55617187 -20.0034375 43.69828125 -20.625 44.875 C-21.54152344 46.62296875 -21.54152344 46.62296875 -22.4765625 48.40625 C-23.98040502 51.27294981 -25.48833018 54.13742221 -27 57 C-27.66 57 -28.32 57 -29 57 C-27.62371507 52.51743703 -25.8449613 48.49832023 -23.69140625 44.3359375 C-23.36845078 43.70962936 -23.0454953 43.08332123 -22.7127533 42.43803406 C-21.66732508 40.41457171 -20.61524479 38.39466409 -19.5625 36.375 C-18.84106385 34.98368509 -18.11971014 33.59232742 -17.3984375 32.20092773 C-11.77128883 21.37163805 -5.9730661 10.64268769 0 0 Z " fill="#7B7B7B" transform="translate(79,143)"/>
<path d="M0 0 C0.33 0.66 0.66 1.32 1 2 C1.66 2.33 2.32 2.66 3 3 C1.24496517 6.48735796 -0.53160153 9.96328823 -2.3125 13.4375 C-3.06176758 14.92733398 -3.06176758 14.92733398 -3.82617188 16.44726562 C-4.31279297 17.39150391 -4.79941406 18.33574219 -5.30078125 19.30859375 C-5.74591064 20.18314209 -6.19104004 21.05769043 -6.6496582 21.95874023 C-8 24 -8 24 -11 25 C-11 25.66 -11 26.32 -11 27 C-10.34 27.66 -9.68 28.32 -9 29 C-12.26954202 28.43628586 -13.82575883 27.50037734 -16 25 C-15.01 25 -14.02 25 -13 25 C-13 24.34 -13 23.68 -13 23 C-12.34 23 -11.68 23 -11 23 C-10.76539063 22.19304687 -10.53078125 21.38609375 -10.2890625 20.5546875 C-8.69999965 16.1727263 -6.59350886 12.21537571 -4.375 8.125 C-3.95476563 7.34125 -3.53453125 6.5575 -3.1015625 5.75 C-2.0718978 3.83107943 -1.03652433 1.91522397 0 0 Z " fill="#D5D5D5" transform="translate(59,174)"/>
<path d="M0 0 C0.33 0.99 0.66 1.98 1 3 C2.65 2.34 4.3 1.68 6 1 C6 2.32 6 3.64 6 5 C7.32 3.68 8.64 2.36 10 1 C11 4 11 4 10.00390625 6.04296875 C9.52824219 6.75066406 9.05257812 7.45835937 8.5625 8.1875 C8.08941406 8.90292969 7.61632813 9.61835938 7.12890625 10.35546875 C6.57009766 11.16951172 6.57009766 11.16951172 6 12 C3.03824877 11.38722388 1.61941217 10.74627478 -1 9 C-1 8.34 -1 7.68 -1 7 C-0.34 7 0.32 7 1 7 C1 6.34 1 5.68 1 5 C0.01 4.67 -0.98 4.34 -2 4 C-1.34 2.68 -0.68 1.36 0 0 Z " fill="#F4F4F4" transform="translate(49,197)"/>
<path d="M0 0 C1.2065625 0.0309375 1.2065625 0.0309375 2.4375 0.0625 C3.74515478 3.98546433 3.6346417 6.92252433 3.4375 11.0625 C2.7775 11.7225 2.1175 12.3825 1.4375 13.0625 C-2.09821429 12.52678571 -2.09821429 12.52678571 -3.5625 11.0625 C-3.66073937 9.39820949 -3.69223631 7.72968069 -3.6875 6.0625 C-3.69007813 5.155 -3.69265625 4.2475 -3.6953125 3.3125 C-3.50465529 0.08254264 -3.25740423 0.07944888 0 0 Z " fill="#656565" transform="translate(315.5625,165.9375)"/>
<path d="M0 0 C1.67542976 0.28604898 3.34385343 0.61781233 5 1 C5.05395478 2.62463842 5.09277195 4.24978541 5.125 5.875 C5.14820313 6.77992188 5.17140625 7.68484375 5.1953125 8.6171875 C5 11 5 11 3 13 C1.68 13 0.36 13 -1 13 C-1.02686553 11.02090602 -1.04633375 9.04171029 -1.0625 7.0625 C-1.07410156 5.96035156 -1.08570313 4.85820312 -1.09765625 3.72265625 C-1 1 -1 1 0 0 Z " fill="#626262" transform="translate(238,166)"/>
<path d="M0 0 C1.67542976 0.28604898 3.34385343 0.61781233 5 1 C5.05422947 2.4370809 5.09289723 3.87475462 5.125 5.3125 C5.14820313 6.11300781 5.17140625 6.91351563 5.1953125 7.73828125 C5 10 5 10 3 13 C1.68 12.67 0.36 12.34 -1 12 C-1.02687279 10.18757948 -1.04633715 8.37504767 -1.0625 6.5625 C-1.07410156 5.55316406 -1.08570313 4.54382813 -1.09765625 3.50390625 C-1 1 -1 1 0 0 Z " fill="#5D5D5D" transform="translate(392,166)"/>
<path d="M0 0 C1.2077558 3.62326739 0.54311128 4.64146369 -1 8 C0.32 7.34 1.64 6.68 3 6 C2.4739075 9.78786597 1.61896089 12.17152224 -1 15 C-1.66 15 -2.32 15 -3 15 C-3 14.01 -3 13.02 -3 12 C-4.32 12.33 -5.64 12.66 -7 13 C-4.29384966 3.40546697 -4.29384966 3.40546697 0 0 Z " fill="#F5F5F5" transform="translate(75,158)"/>
<path d="M0 0 C0.66 0.33 1.32 0.66 2 1 C1.67 1.33 1.34 1.66 1 2 C3.475 2.99 3.475 2.99 6 4 C6 5.65 6 7.3 6 9 C3 8 0 7 -3 6 C-3.2475 6.61875 -3.495 7.2375 -3.75 7.875 C-5.20628639 10.35068687 -6.37812506 10.95125002 -9 12 C-7.60090738 7.54834166 -5.39864635 5.14374788 -2 2 C-1.34 1.34 -0.68 0.68 0 0 Z " fill="#E0E0E0" transform="translate(76,131)"/>
<path d="M0 0 C0.66 0 1.32 0 2 0 C0.37317535 5.70323584 -2.33197987 10.68013903 -5.125 15.875 C-5.59292969 16.75414062 -6.06085937 17.63328125 -6.54296875 18.5390625 C-7.6912093 20.69494271 -8.84363903 22.84846777 -10 25 C-10.66 25 -11.32 25 -12 25 C-10.37317535 19.29676416 -7.66802013 14.31986097 -4.875 9.125 C-4.40707031 8.24585938 -3.93914063 7.36671875 -3.45703125 6.4609375 C-2.3087907 4.30505729 -1.15636097 2.15153223 0 0 Z " fill="#737373" transform="translate(62,175)"/>
<path d="M0 0 C0.33 0.66 0.66 1.32 1 2 C1.99 2 2.98 2 4 2 C3.31238981 5.65564909 1.74550455 8.51867272 -0.0625 11.75 C-0.61035156 12.73484375 -1.15820312 13.7196875 -1.72265625 14.734375 C-2.14417969 15.48203125 -2.56570312 16.2296875 -3 17 C-4 15 -4 15 -3.0625 11.875 C-2.711875 10.92625 -2.36125 9.9775 -2 9 C-2.99 9.495 -2.99 9.495 -4 10 C-2.8905928 6.51329166 -1.73662334 3.22515763 0 0 Z " fill="#B9B9B9" transform="translate(77,150)"/>
<path d="M0 0 C-1.68673918 4.49797113 -3.81673892 8.72886302 -6 13 C-6.66 13 -7.32 13 -8 13 C-8.32470459 8.86001651 -8.4304413 6.66000999 -6.125 3.125 C-3 0 -3 0 0 0 Z " fill="#585858" transform="translate(60,155)"/>
<path d="M0 0 C0.99 1.0828125 0.99 1.0828125 2 2.1875 C5.25537038 5.46147249 9.05840942 7.64988846 13 10 C13.99 10.66 14.98 11.32 16 12 C13.57210036 12.87794585 12.43028124 13.17648254 10 12.1796875 C5.95830809 9.54311504 2.6278293 7.16072972 0 3 C0 2.01 0 1.02 0 0 Z " fill="#D0D0D0" transform="translate(30,172)"/>
<path d="M0 0 C3.96 0 7.92 0 12 0 C11.67 0.99 11.34 1.98 11 3 C6.545 3.495 6.545 3.495 2 4 C1.34 2.68 0.68 1.36 0 0 Z " fill="#666666" transform="translate(551,175)"/>
<path d="M0 0 C3.63 0 7.26 0 11 0 C10.67 0.99 10.34 1.98 10 3 C5.545 3.495 5.545 3.495 1 4 C0.67 2.68 0.34 1.36 0 0 Z " fill="#636363" transform="translate(490,175)"/>
<path d="M0 0 C3.63 0 7.26 0 11 0 C7.48283697 3.51716303 5.80432667 3.54676163 1 4 C0.67 2.68 0.34 1.36 0 0 Z " fill="#575757" transform="translate(262,175)"/>
<path d="M0 0 C0.99 0 1.98 0 3 0 C2.47557578 3.7758544 1.67345333 6.22372155 -1 9 C-1.99 9 -2.98 9 -4 9 C-2.94124926 5.59687262 -1.99097846 2.98646769 0 0 Z " fill="#E0E0E0" transform="translate(58,159)"/>
<path d="M0 0 C2.29013653 3.4352048 2.17842973 4.985331 2 9 C1.34 9 0.68 9 0 9 C0 8.01 0 7.02 0 6 C-1.32 6.33 -2.64 6.66 -4 7 C-2.92598892 4.08482708 -2.22189824 2.22189824 0 0 Z " fill="#FCFCFC" transform="translate(82,145)"/>
<path d="M0 0 C0.33 0.99 0.66 1.98 1 3 C-0.75 6.1875 -0.75 6.1875 -3 9 C-3.99 9 -4.98 9 -6 9 C-4.52307692 2.35384615 -4.52307692 2.35384615 -1.875 0.5625 C-0.946875 0.2840625 -0.946875 0.2840625 0 0 Z " fill="#F1F1F1" transform="translate(56,167)"/>
<path d="M0 0 C1.67542976 0.28604898 3.34385343 0.61781233 5 1 C5 2.65 5 4.3 5 6 C3.02 5.34 1.04 4.68 -1 4 C-1 1 -1 1 0 0 Z " fill="#5B5B5B" transform="translate(77,134)"/>
<path d="M0 0 C1.2065625 0.0309375 1.2065625 0.0309375 2.4375 0.0625 C2.4375 1.7125 2.4375 3.3625 2.4375 5.0625 C0.7875 5.0625 -0.8625 5.0625 -2.5625 5.0625 C-3.125 3.125 -3.125 3.125 -3.5625 1.0625 C-2.5625 0.0625 -2.5625 0.0625 0 0 Z " fill="#6F6F6F" transform="translate(178.5625,173.9375)"/>
<path d="M0 0 C0.66 0 1.32 0 2 0 C2 0.99 2 1.98 2 3 C2.66 3.33 3.32 3.66 4 4 C2.75 6.9375 2.75 6.9375 1 10 C-1.1875 10.875 -1.1875 10.875 -3 11 C-2.690625 10.113125 -2.38125 9.22625 -2.0625 8.3125 C-1.1709329 5.53290845 -0.50622993 2.86863625 0 0 Z " fill="#E4E4E4" transform="translate(70,170)"/>
<path d="M0 0 C0.33 0.66 0.66 1.32 1 2 C1.66 2.33 2.32 2.66 3 3 C1.75 5.9375 1.75 5.9375 0 9 C-2.1875 9.875 -2.1875 9.875 -4 10 C-2.8905928 6.51329166 -1.73662334 3.22515763 0 0 Z " fill="#E1E1E1" transform="translate(67,169)"/>
<path d="M0 0 C1.98 0 3.96 0 6 0 C6.33 1.32 6.66 2.64 7 4 C4.125 4.125 4.125 4.125 1 4 C0.34 3.34 -0.32 2.68 -1 2 C-0.67 1.34 -0.34 0.68 0 0 Z " fill="#6B6B6B" transform="translate(174,166)"/>
<path d="M0 0 C1.98 0.495 1.98 0.495 4 1 C4.33 2.32 4.66 3.64 5 5 C3.02 5 1.04 5 -1 5 C-0.67 3.35 -0.34 1.7 0 0 Z " fill="#808080" transform="translate(552,165)"/>
<path d="M0 0 C1.98 0.495 1.98 0.495 4 1 C4.33 2.32 4.66 3.64 5 5 C3.02 5 1.04 5 -1 5 C-0.67 3.35 -0.34 1.7 0 0 Z " fill="#808080" transform="translate(490,165)"/>
<path d="M0 0 C2.29013653 3.4352048 2.17842973 4.985331 2 9 C3.98 9 5.96 9 8 9 C8 9.33 8 9.66 8 10 C5.36 10.33 2.72 10.66 0 11 C0 7.37 0 3.74 0 0 Z " fill="#848484" transform="translate(237,151)"/>
<path d="M0 0 C0.33 0.66 0.66 1.32 1 2 C1.66 2.33 2.32 2.66 3 3 C2.01 4.98 1.02 6.96 0 9 C-0.99 8.67 -1.98 8.34 -3 8 C-1.125 2.25 -1.125 2.25 0 0 Z " fill="#DEDEDE" transform="translate(52,187)"/>
<path d="M0 0 C1 3 1 3 -0.25 5.625 C-2 8 -2 8 -5 9 C-5 5 -5 5 -2.5 2.25 C-1.675 1.5075 -0.85 0.765 0 0 Z " fill="#F0F0F0" transform="translate(48,182)"/>
<path d="M0 0 C1.65 0 3.3 0 5 0 C5.33 1.32 5.66 2.64 6 4 C4.02 4 2.04 4 0 4 C0 2.68 0 1.36 0 0 Z " fill="#707070" transform="translate(261,166)"/>
<path d="M0 0 C1.8871875 0.061875 1.8871875 0.061875 3.8125 0.125 C3.8125 0.455 3.8125 0.785 3.8125 1.125 C2.20375 1.24875 2.20375 1.24875 0.5625 1.375 C-3.52250175 2.19200035 -4.53641677 3.0811637 -7.1875 6.125 C-7.8475 6.125 -8.5075 6.125 -9.1875 6.125 C-7.20938974 1.56013016 -5.01716504 -0.16449721 0 0 Z " fill="#CCCCCC" transform="translate(492.1875,159.875)"/>
<path d="M0 0 C0.33 0.99 0.66 1.98 1 3 C-0.78346291 6.03188696 -1.59575156 6.86525052 -5 8 C-3.375 2.25 -3.375 2.25 0 0 Z " fill="#EDEDED" transform="translate(75,158)"/>
<path d="M0 0 C0.33 0.66 0.66 1.32 1 2 C1.66 2.33 2.32 2.66 3 3 C0.375 6.875 0.375 6.875 -3 8 C-1.125 2.25 -1.125 2.25 0 0 Z " fill="#E1E1E1" transform="translate(55,192)"/>
<path d="M0 0 C0 0.33 0 0.66 0 1 C-0.928125 1.268125 -1.85625 1.53625 -2.8125 1.8125 C-5.8311641 2.93710035 -6.9155143 3.70706573 -9 6 C-9.66 6 -10.32 6 -11 6 C-8.60159776 0.46522561 -5.82500047 -0.25888891 0 0 Z " fill="#D0D0D0" transform="translate(266,160)"/>
<path d="M0 0 C-1.11179163 3.33537489 -2.47411298 4.63707344 -5 7 C-5 6.34 -5 5.68 -5 5 C-5.66 4.67 -6.32 4.34 -7 4 C-2.25 0 -2.25 0 0 0 Z " fill="#D7D7D7" transform="translate(86,126)"/>
<path d="M0 0 C0.33 0.66 0.66 1.32 1 2 C-0.3125 4.625 -0.3125 4.625 -2 7 C-2.66 7 -3.32 7 -4 7 C-4 5.68 -4 4.36 -4 3 C-2 1.25 -2 1.25 0 0 Z " fill="#F0F0F0" transform="translate(57,182)"/>
<path d="M0 0 C0.33 0.99 0.66 1.98 1 3 C-0.3125 5.1875 -0.3125 5.1875 -2 7 C-2.66 7 -3.32 7 -4 7 C-4 6.01 -4 5.02 -4 4 C-3.34 4 -2.68 4 -2 4 C-1.34 2.68 -0.68 1.36 0 0 Z " fill="#F3F3F3" transform="translate(63,153)"/>
</svg>
