<?xml version="1.0" encoding="UTF-8"?>
<svg version="1.1" xmlns="http://www.w3.org/2000/svg" width="512" height="512">
<path d="M0 0 C1.51671886 1.26424817 3.0593383 2.49722026 4.60253906 3.72900391 C19.28864031 15.68237492 33.1902857 29.28168978 44.33349609 44.62451172 C45.62066708 46.38127784 46.9453607 48.10442915 48.27832031 49.82666016 C72.45591287 81.38831197 88.32687017 120.12752123 94.56347656 159.30322266 C94.72428711 160.30675781 94.88509766 161.31029297 95.05078125 162.34423828 C99.15307909 189.19102865 98.85784384 216.50430539 94.56347656 243.30322266 C94.40782227 244.28097656 94.25216797 245.25873047 94.09179688 246.26611328 C83.83070262 307.66882901 48.55341729 366.91574741 -1.70214844 404.01318359 C-3.45613547 405.31781021 -5.18141301 406.65442649 -6.90527344 407.99853516 C-58.49573872 447.71022316 -126.64664264 463.36497081 -190.72607422 455.71557617 C-232.1290536 450.25493496 -271.20213463 435.19680584 -305.43652344 411.30322266 C-306.15565918 410.80177734 -306.87479492 410.30033203 -307.61572266 409.78369141 C-318.02591578 402.43816999 -327.32460976 394.18751632 -336.43652344 385.30322266 C-337.07509277 384.69043457 -337.71366211 384.07764648 -338.37158203 383.44628906 C-346.67181637 375.47831329 -354.27219981 367.3099454 -361.12597656 358.0625 C-362.45449434 356.27909852 -363.81012381 354.5191275 -365.17089844 352.76025391 C-404.6647793 301.10368044 -421.02435224 232.73318877 -412.84033203 168.60058594 C-412.40469949 165.49544331 -411.93264328 162.39924907 -411.43652344 159.30322266 C-411.28086914 158.32546875 -411.12521484 157.34771484 -410.96484375 156.34033203 C-402.66879853 106.69653249 -378.42754956 60.28925426 -343.43652344 24.30322266 C-342.82550781 23.66642578 -342.21449219 23.02962891 -341.58496094 22.37353516 C-333.27930111 13.73697254 -324.82481479 5.71874882 -315.1796875 -1.40234375 C-313.40167473 -2.7226552 -311.64898673 -4.07204745 -309.89746094 -5.42724609 C-231.90738178 -65.10203185 -121.53510399 -69.85830349 0 0 Z " fill="#5D6163" transform="translate(414.4365234375,54.69677734375)"/>
<path d="M0 0 C4.29545455 2.30113636 4.29545455 2.30113636 6 5 C8.13085796 12.09806063 4.70751498 19.44977522 2.35766602 26.09765625 C-0.0680577 32.97710903 -1.74489098 39.80343967 -3 47 C-3.18433594 48.02351563 -3.36867188 49.04703125 -3.55859375 50.1015625 C-6.114042 72.67091958 -3.89814255 95.70685826 4 117 C4.25797363 117.69722168 4.51594727 118.39444336 4.78173828 119.11279297 C12.10142144 138.53119838 22.71906211 154.86992526 37 170 C37.62261719 170.67546875 38.24523437 171.3509375 38.88671875 172.046875 C64.13281334 198.51028652 100.98486005 212.27309056 137.03881836 213.40478516 C160.19589374 213.68421317 182.46912809 208.79930627 203.1875 198.5 C207.71187378 196.3394518 211.13125639 195.13602535 216.1171875 196.203125 C219.87660176 197.79424639 221.03940464 199.340222 223 203 C223.28034258 209.51053479 221.01251757 215.51947489 218.5625 221.4375 C218.20978027 222.30004395 217.85706055 223.16258789 217.49365234 224.05126953 C209.34592708 243.44065835 198.08471008 260.41822413 183.46728516 275.48144531 C182.08009762 276.91710362 180.71696819 278.37589527 179.35546875 279.8359375 C157.00771959 303.22233767 127.10938994 317.45882328 96 325 C94.55367188 325.35191406 94.55367188 325.35191406 93.078125 325.7109375 C51.72551368 334.79797629 5.96516112 325.59161431 -29.78417969 303.59985352 C-46.55733398 292.84813751 -61.91638921 279.89108815 -74 264 C-74.72445312 263.09121094 -75.44890625 262.18242187 -76.1953125 261.24609375 C-87.02431565 247.37968728 -94.6462794 232.34755324 -101 216 C-101.42152344 214.93652344 -101.84304687 213.87304688 -102.27734375 212.77734375 C-117.25854876 173.48701363 -113.70480623 126.14514436 -97 88 C-88.601459 69.79272896 -77.49759123 53.7720419 -64 39 C-63.25234375 38.18015625 -62.5046875 37.3603125 -61.734375 36.515625 C-48.95100577 23.16410603 -32.90959498 12.35214604 -16.5625 3.875 C-15.8293457 3.48425293 -15.09619141 3.09350586 -14.34082031 2.69091797 C-9.2984561 0.17202681 -5.63685316 -0.54993689 0 0 Z " fill="#FEFEFE" transform="translate(200,92)"/>
</svg>
