<?xml version="1.0" encoding="UTF-8"?>
<svg version="1.1" xmlns="http://www.w3.org/2000/svg" width="512" height="512">
<path d="M0 0 C0.52335938 0.41652832 1.04671875 0.83305664 1.5859375 1.26220703 C30.16939895 24.20110582 47.05415305 55.98771612 51.39453125 92.30078125 C51.67101351 95.20200173 51.86519449 98.08904359 52 101 C52.061875 102.13501953 52.061875 102.13501953 52.125 103.29296875 C53.14991795 140.51030178 37.54895177 174.62245625 12.546875 201.44921875 C-13.08298891 227.11839227 -47.44975088 239.41468547 -83.26855469 240.00683594 C-114.77255604 239.92799146 -145.01015301 228.21239806 -169 208 C-169.51014648 207.57493164 -170.02029297 207.14986328 -170.54589844 206.71191406 C-197.11729074 184.31915543 -212.402374 151.14806305 -215.625 116.875 C-218.24049265 79.92522201 -206.23733035 44.87575792 -182.2578125 16.7578125 C-161.2157084 -7.28980075 -130.75104566 -23.22114778 -99 -27 C-98.04738281 -27.12246094 -97.09476562 -27.24492188 -96.11328125 -27.37109375 C-62.05531511 -30.903354 -26.83330353 -21.38278875 0 0 Z " fill="#565656" transform="translate(338,150)"/>
<path d="M0 0 C20.01522331 1.17736608 20.01522331 1.17736608 26.875 2.625 C28.11189575 2.88168457 28.11189575 2.88168457 29.3737793 3.14355469 C48.60798298 7.39384368 66.58850723 15.7189667 82 28 C82.52335937 28.41652832 83.04671875 28.83305664 83.5859375 29.26220703 C112.16939895 52.20110582 129.05415305 83.98771612 133.39453125 120.30078125 C133.67101351 123.20200173 133.86519449 126.08904359 134 129 C134.04125 129.75667969 134.0825 130.51335937 134.125 131.29296875 C135.14991795 168.51030178 119.54895177 202.62245625 94.546875 229.44921875 C74.09767684 249.92978071 45.81864024 263.90122148 17 267 C11.39 267 5.78 267 0 267 C0 178.89 0 90.78 0 0 Z " fill="#737373" transform="translate(256,122)"/>
<path d="M0 0 C1.50240234 0.87350098 1.50240234 0.87350098 3.03515625 1.76464844 C4.16767822 2.41723633 5.3002002 3.06982422 6.46704102 3.7421875 C7.67749599 4.45237373 8.8876959 5.16299485 10.09765625 5.87402344 C11.34330663 6.59827919 12.58932292 7.32190597 13.83569336 8.04492188 C16.36614766 9.5151149 18.89304965 10.99116956 21.41748047 12.47167969 C24.84296467 14.4790298 28.28334902 16.45971873 31.7265625 18.43652344 C33.70488418 19.58156741 35.68277487 20.72735644 37.66015625 21.87402344 C38.57474609 22.39770508 39.48933594 22.92138672 40.43164062 23.4609375 C41.27146484 23.95303711 42.11128906 24.44513672 42.9765625 24.95214844 C43.70431885 25.37399414 44.4320752 25.79583984 45.18188477 26.23046875 C48.39795242 28.56987415 49.92930644 30.63496828 50.59765625 34.56152344 C50.09765625 37.62402344 50.09765625 37.62402344 48.09765625 40.56152344 C44.69166036 42.90314561 43.2115069 42.80288788 39.22558594 42.17016602 C35.69030725 41.26282108 32.7645633 39.4407474 29.72265625 37.49902344 C28.24985203 36.59609654 26.77580444 35.69519586 25.30078125 34.79589844 C24.48802734 34.29638672 23.67527344 33.796875 22.83789062 33.28222656 C18.00754928 30.35923312 13.10588313 27.55865562 8.21014404 24.74713135 C4.41381797 22.56631425 0.62172716 20.37812633 -3.16894531 18.1875 C-4.82333255 17.24120705 -6.48491698 16.30714999 -8.15917969 15.39648438 C-11.307241 13.68187173 -12.86676212 12.67739589 -14.90234375 9.62402344 C-15.23704866 5.9422694 -15.39809165 3.52109106 -13.58984375 0.24902344 C-9.42579872 -3.76079771 -4.751071 -2.25244248 0 0 Z " fill="#727272" transform="translate(417.90234375,339.3759765625)"/>
<path d="M0 0 C2.66879018 2.31295149 2.97904991 3.88686954 3.625 7.375 C2.74686213 12.46819967 0.04124434 14.03388651 -4 17 C-6.57714293 18.63871946 -9.23639117 20.0770174 -11.9375 21.5 C-20.69096293 26.23011477 -29.2802936 31.21328828 -37.85131836 36.265625 C-51.04413724 44.01620106 -51.04413724 44.01620106 -55.6875 43.9375 C-59 43 -59 43 -60.9375 41.3125 C-62.34589562 38.24716836 -62.47772045 36.34404315 -62 33 C-59.42947547 29.2500368 -56.96499947 27.088462 -52.984375 24.94140625 C-51.49478271 24.12482544 -51.49478271 24.12482544 -49.97509766 23.29174805 C-48.91081543 22.72109619 -47.8465332 22.15044434 -46.75 21.5625 C-44.50145769 20.33282326 -42.25409352 19.10099015 -40.0078125 17.8671875 C-38.85442383 17.23522461 -37.70103516 16.60326172 -36.51269531 15.95214844 C-29.77084236 12.22842064 -23.15753841 8.27843056 -16.53027344 4.35571289 C-15.58442383 3.79875732 -14.63857422 3.24180176 -13.6640625 2.66796875 C-12.83342285 2.17578857 -12.0027832 1.6836084 -11.14697266 1.17651367 C-7.0480686 -1.06963355 -4.48341743 -1.21425889 0 0 Z " fill="#565656" transform="translate(106,338)"/>
<path d="M0 0 C2.562964 2.23225897 2.93752331 3.58051369 3.4375 6.9375 C2.8776871 10.85619033 1.7251022 12.13192741 -1 15 C-3.47509184 16.6902433 -6.09323553 18.05557284 -8.75 19.4375 C-10.3608807 20.3018873 -11.97017004 21.16924476 -13.578125 22.0390625 C-14.44501953 22.50731445 -15.31191406 22.97556641 -16.20507812 23.45800781 C-22.38068844 26.86516669 -28.43164279 30.49431601 -34.49902344 34.08959961 C-39.10688003 36.80176512 -43.73575709 39.46058613 -48.46875 41.94921875 C-49.24669922 42.35873779 -50.02464844 42.76825684 -50.82617188 43.19018555 C-53.26033778 44.09698343 -54.49942 44.11969502 -57 43.5 C-60 42 -60 42 -62 39 C-62.375 35.5625 -62.375 35.5625 -62 32 C-59.20329747 28.6209253 -55.98928388 26.65690149 -52.1875 24.53125 C-51.03822021 23.88293213 -49.88894043 23.23461426 -48.70483398 22.56665039 C-48.09968964 22.22908722 -47.49454529 21.89152405 -46.87106323 21.54373169 C-43.71008362 19.78044837 -40.56040569 17.99720545 -37.41015625 16.21484375 C-36.78045425 15.85917831 -36.15075226 15.50351288 -35.50196838 15.1370697 C-28.90795151 11.402281 -22.4183352 7.49923469 -15.95507812 3.54296875 C-15.20548828 3.08664063 -14.45589844 2.6303125 -13.68359375 2.16015625 C-13.03962646 1.76449463 -12.39565918 1.36883301 -11.73217773 0.96118164 C-7.55176093 -1.35852251 -4.57026585 -1.06095457 0 0 Z " fill="#727272" transform="translate(465,131)"/>
<path d="M0 0 C3.53527868 0.90734493 6.46102264 2.72941861 9.50292969 4.67114258 C10.97573391 5.57406948 12.4497815 6.47497015 13.92480469 7.37426758 C14.73755859 7.8737793 15.5503125 8.37329102 16.38769531 8.88793945 C21.21803666 11.8109329 26.11970281 14.6115104 31.01544189 17.42303467 C34.81176797 19.60385176 38.60385878 21.79203968 42.39453125 23.98266602 C44.04891849 24.92895897 45.71050291 25.86301603 47.38476562 26.77368164 C50.53282694 28.48829428 52.09234805 29.49277013 54.12792969 32.54614258 C54.45354002 36.12785629 54.55531339 38.6438881 53.00292969 41.92114258 C50.41105758 44.16743174 48.52780865 44.29268446 45.12792969 44.54614258 C42.32788086 43.56860352 42.32788086 43.56860352 39.48339844 42.03051758 C38.43845215 41.47170898 37.39350586 40.91290039 36.31689453 40.3371582 C35.26453613 39.74612305 34.21217773 39.15508789 33.12792969 38.54614258 C32.15678223 38.00151367 31.18563477 37.45688477 30.18505859 36.89575195 C27.25458201 35.2211939 24.34510423 33.51503519 21.44042969 31.79614258 C19.34932006 30.56431029 17.25817397 29.33253988 15.16699219 28.10083008 C14.14895508 27.49980469 13.13091797 26.8987793 12.08203125 26.27954102 C9.36542127 24.68549714 6.63745671 23.114257 3.90136719 21.55395508 C3.11979248 21.10503906 2.33821777 20.65612305 1.53295898 20.19360352 C0.09795825 19.37017251 -1.34048547 18.55270065 -2.78295898 17.74243164 C-6.22227871 15.75462809 -8.88986001 14.04542358 -10.87207031 10.54614258 C-11.56064479 6.50076751 -11.1984767 5.02555196 -8.87207031 1.60864258 C-5.46607443 -0.73297959 -3.98592096 -0.63272186 0 0 Z " fill="#565656" transform="translate(54.8720703125,130.453857421875)"/>
<path d="M0 0 C0.99 0.01933594 0.99 0.01933594 2 0.0390625 C2.66 0.02617187 3.32 0.01328125 4 0 C7.12264614 1.0368161 8.19855858 2.9709364 10 5.6640625 C10.50793457 8.63014221 10.50793457 8.63014221 10.51757812 11.95141602 C10.53018677 13.19943497 10.54279541 14.44745392 10.55578613 15.73329163 C10.54862684 17.08652311 10.54042298 18.43974942 10.53125 19.79296875 C10.53394654 21.18871836 10.53783031 22.58446615 10.54284668 23.98020935 C10.54873233 26.89966793 10.54020849 29.81863574 10.52148438 32.73803711 C10.49867309 36.47644043 10.51183595 40.2136964 10.53577423 43.95205784 C10.55024003 46.83205283 10.54562324 49.71177647 10.53526306 52.59177971 C10.53259898 53.97006301 10.5358544 55.34837112 10.54518127 56.72662544 C10.55535993 58.65311322 10.53708984 60.57968766 10.51757812 62.50610352 C10.51280457 64.14894066 10.51280457 64.14894066 10.50793457 65.82496643 C9.87931008 69.33865781 8.7848731 70.49736312 6 72.6640625 C2.31548282 73.83997224 0.71745725 73.99887588 -2.8125 72.3515625 C-5 70.6640625 -5 70.6640625 -6 68.6640625 C-6.11183633 66.68937728 -6.15929696 64.71092466 -6.17700195 62.7331543 C-6.18983719 61.48813644 -6.20267242 60.24311859 -6.21589661 58.96037292 C-6.22406428 57.59467974 -6.23150796 56.22898206 -6.23828125 54.86328125 C-6.24235678 54.17630472 -6.2464323 53.48932819 -6.25063133 52.78153419 C-6.27149176 49.14480515 -6.28579304 45.50811383 -6.29516602 41.87133789 C-6.30622525 38.11850242 -6.34061858 34.36626076 -6.38033772 30.61363506 C-6.40650911 27.72509168 -6.41485829 24.83668961 -6.41844749 21.9480381 C-6.42331289 20.56495978 -6.43492574 19.18188775 -6.45348549 17.7989254 C-6.47788099 15.86048075 -6.47449171 13.92174718 -6.4699707 11.9831543 C-6.47583694 10.88110153 -6.48170319 9.77904877 -6.48774719 8.64360046 C-5.82751926 4.61041642 -4.0382857 1.34083705 0 0 Z " fill="#565656" transform="translate(254,426.3359375)"/>
<path d="M0 0 C2.7995786 2.15622773 3.87877763 3.32242858 4.50793457 6.83909607 C4.51111694 7.93432083 4.51429932 9.02954559 4.51757812 10.15795898 C4.53018677 11.40282578 4.54279541 12.64769257 4.55578613 13.93028259 C4.54862549 15.28555874 4.5404213 16.64082972 4.53125 17.99609375 C4.53394597 19.39087698 4.53782927 20.78565837 4.54284668 22.18043518 C4.54873889 25.10167357 4.54018991 28.02242215 4.52148438 30.94360352 C4.49871508 34.68081718 4.5118052 38.41688048 4.53577423 42.15405178 C4.55025843 45.03408913 4.54561409 47.91385574 4.53526306 50.79390144 C4.53260186 52.17135823 4.53584419 53.54883991 4.54518127 54.92626762 C4.55538556 56.85505553 4.5370638 58.78393001 4.51757812 60.71264648 C4.51280457 62.35667702 4.51280457 62.35667702 4.50793457 64.03392029 C3.88253337 67.68594544 2.56087976 69.37072131 0 72 C-2 72.6640625 -2 72.6640625 -4 72.625 C-4.66 72.63789062 -5.32 72.65078125 -6 72.6640625 C-9.12264614 71.6272464 -10.19855858 69.6931261 -12 67 C-12.50793457 64.03392029 -12.50793457 64.03392029 -12.51757812 60.71264648 C-12.53018677 59.46462753 -12.54279541 58.21660858 -12.55578613 56.93077087 C-12.54862684 55.57753939 -12.54042298 54.22431308 -12.53125 52.87109375 C-12.53394654 51.47534414 -12.53783031 50.07959635 -12.54284668 48.68385315 C-12.54873233 45.76439457 -12.54020849 42.84542676 -12.52148438 39.92602539 C-12.49867309 36.18762207 -12.51183595 32.4503661 -12.53577423 28.71200466 C-12.55024003 25.83200967 -12.54562324 22.95228603 -12.53526306 20.07228279 C-12.53259898 18.69399949 -12.5358544 17.31569138 -12.54518127 15.93743706 C-12.55535993 14.01094928 -12.53708984 12.08437484 -12.51757812 10.15795898 C-12.51439575 9.06273422 -12.51121338 7.96750946 -12.50793457 6.83909607 C-11.88232643 3.34226453 -10.73391817 2.19171552 -8 0 C-5.02898609 -1.48550695 -3.16565278 -0.82306972 0 0 Z " fill="#565656" transform="translate(260,13)"/>
<path d="M0 0 C5.01081306 4.24301394 8.24556498 10.39453537 11.375 16.0625 C11.82488281 16.83916016 12.27476562 17.61582031 12.73828125 18.41601562 C15.13033062 22.70934435 16.81315971 25.94786882 16 31 C13.54405875 34.32274404 12.0743356 35.77618008 8 36.625 C3.37042835 35.66050591 1.1388322 32.68468626 -1.41601562 28.90527344 C-2.91042974 26.48367546 -4.33862548 24.03335647 -5.75 21.5625 C-6.49056641 20.31243164 -6.49056641 20.31243164 -7.24609375 19.03710938 C-9.71893517 14.75198006 -11.82352224 11.0641445 -12 6 C-9.23995714 0.08562243 -6.45556988 -0.86074265 0 0 Z " fill="#727272" transform="translate(349,403)"/>
<path d="M0 0 C3.64753021 0.45594128 5.10967933 0.67943769 7.5 3.4375 C9.03051086 8.67305944 8.00865822 11.3834197 5.5 16.125 C5.18256836 16.72860352 4.86513672 17.33220703 4.53808594 17.95410156 C-3.59243868 33.16579246 -3.59243868 33.16579246 -8.5 36.4375 C-11.375 36.875 -11.375 36.875 -14.5 36.4375 C-17.375 34.3125 -17.375 34.3125 -19.5 31.4375 C-19.95084063 26.95431019 -19.25741713 24.26367463 -17.015625 20.3984375 C-16.49226562 19.48835938 -15.96890625 18.57828125 -15.4296875 17.640625 C-14.87539062 16.70734375 -14.32109375 15.7740625 -13.75 14.8125 C-13.21117187 13.87148438 -12.67234375 12.93046875 -12.1171875 11.9609375 C-5.55574971 0.69446871 -5.55574971 0.69446871 0 0 Z " fill="#565656" transform="translate(166.5,402.5625)"/>
<path d="M0 0 C2.875 2.125 2.875 2.125 5 5 C5.45084063 9.48318981 4.75741713 12.17382537 2.515625 16.0390625 C1.99226563 16.94914062 1.46890625 17.85921875 0.9296875 18.796875 C0.37539063 19.73015625 -0.17890625 20.6634375 -0.75 21.625 C-1.28882813 22.56601563 -1.82765625 23.50703125 -2.3828125 24.4765625 C-7.21831502 32.77947414 -7.21831502 32.77947414 -11 36 C-14.65973254 36.45746657 -17.02604821 36.46134558 -20.375 34.875 C-22.64482725 32.25596855 -22.77966771 30.44779229 -23 27 C-21.8125 23.73828125 -21.8125 23.73828125 -20 20.3125 C-19.68256836 19.70889648 -19.36513672 19.10529297 -19.03808594 18.48339844 C-8.52122668 -1.19297174 -8.52122668 -1.19297174 0 0 Z " fill="#727272" transform="translate(360,73)"/>
<path d="M0 0 C4.62957165 0.96449409 6.8611678 3.94031374 9.41601562 7.71972656 C10.91042974 10.14132454 12.33862548 12.59164353 13.75 15.0625 C14.24371094 15.89587891 14.73742187 16.72925781 15.24609375 17.58789062 C17.71893517 21.87301994 19.82352224 25.5608555 20 30.625 C17.86956522 35.19021739 17.86956522 35.19021739 15 36.625 C11.75 37.125 11.75 37.125 8 36.625 C2.98918694 32.38198606 -0.24556498 26.23046463 -3.375 20.5625 C-3.82488281 19.78583984 -4.27476562 19.00917969 -4.73828125 18.20898438 C-7.13033062 13.91565565 -8.81315971 10.67713118 -8 5.625 C-5.54405875 2.30225596 -4.0743356 0.84881992 0 0 Z " fill="#565656" transform="translate(155,72.375)"/>
<path d="M0 0 C1.97806641 -0.03577148 1.97806641 -0.03577148 3.99609375 -0.07226562 C5.26582031 -0.07033203 6.53554688 -0.06839844 7.84375 -0.06640625 C9.00068359 -0.06713135 10.15761719 -0.06785645 11.34960938 -0.06860352 C15.43337739 0.74947927 16.92812243 2.35445538 19.5 5.5625 C20.125 8.5625 20.125 8.5625 19.5 11.5625 C16.92812243 14.77054462 15.43337739 16.37552073 11.34960938 17.19360352 C9.61420898 17.19251587 9.61420898 17.19251587 7.84375 17.19140625 C5.93916016 17.19430664 5.93916016 17.19430664 3.99609375 17.19726562 C2.67738281 17.17341797 1.35867188 17.14957031 0 17.125 C-1.31871094 17.13595703 -2.63742187 17.14691406 -3.99609375 17.15820312 C-14.90989335 17.07510313 -14.90989335 17.07510313 -19.5 12.5625 C-20.1640625 10.5625 -20.1640625 10.5625 -20.125 8.5625 C-20.13789063 7.9025 -20.15078125 7.2425 -20.1640625 6.5625 C-17.36858359 -1.8568247 -6.98563989 -0.05804295 0 0 Z " fill="#727272" transform="translate(446.5,247.4375)"/>
<path d="M0 0 C1.90458984 -0.00290039 1.90458984 -0.00290039 3.84765625 -0.00585938 C5.16636719 0.01798828 6.48507813 0.04183594 7.84375 0.06640625 C9.16246094 0.05544922 10.48117188 0.04449219 11.83984375 0.03320312 C22.75364335 0.11630312 22.75364335 0.11630312 27.34375 4.62890625 C28.0078125 6.62890625 28.0078125 6.62890625 27.96875 8.62890625 C27.98164062 9.28890625 27.99453125 9.94890625 28.0078125 10.62890625 C26.96751345 13.76204222 25.05346841 14.82802748 22.34375 16.62890625 C17.54163202 17.44203611 12.70730939 17.23181706 7.84375 17.19140625 C6.52503906 17.21525391 5.20632812 17.23910156 3.84765625 17.26367188 C2.57792969 17.26173828 1.30820312 17.25980469 0 17.2578125 C-1.15693359 17.2585376 -2.31386719 17.2592627 -3.50585938 17.26000977 C-7.58962739 16.44192698 -9.08437243 14.83695087 -11.65625 11.62890625 C-12.28125 8.62890625 -12.28125 8.62890625 -11.65625 5.62890625 C-8.02605816 1.10076793 -5.7628698 -0.00361183 0 0 Z " fill="#575757" transform="translate(57.65625,247.37109375)"/>
<path d="M0 0 C5 1 5 1 6.7872467 2.67663574 C8.34561588 5.66212278 8.38749679 7.80857413 8.40405273 11.17382812 C8.41673691 12.42192261 8.42942108 13.67001709 8.44248962 14.95593262 C8.44043826 16.31437343 8.43745029 17.67281311 8.43359375 19.03125 C8.43815618 20.42842869 8.44346194 21.82560513 8.44947815 23.22277832 C8.45840487 26.14812347 8.45599092 29.07319554 8.44604492 31.99853516 C8.43454809 35.74477293 8.45477837 39.49006909 8.48396206 43.23618317 C8.50231886 46.12044241 8.50203289 49.00447569 8.49632454 51.88877869 C8.4961713 53.26986513 8.50221817 54.65096687 8.51461601 56.03199768 C8.52951339 57.96333642 8.51622537 59.89483024 8.50170898 61.82617188 C8.50154282 62.92441284 8.50137665 64.02265381 8.50120544 65.1541748 C7.87787516 68.69342012 6.88414438 69.9016903 4 72 C2.68 72 1.36 72 0 72 C0 48.24 0 24.48 0 0 Z " fill="#727272" transform="translate(256,427)"/>
<path d="M0 0 C2.97 0.495 2.97 0.495 6 1 C8.3290006 4.49350089 8.26183206 5.91363929 8.29052734 10.04443359 C8.3096669 11.91184708 8.3096669 11.91184708 8.32919312 13.81698608 C8.33225077 15.17746831 8.33447853 16.53795262 8.3359375 17.8984375 C8.34236532 19.29464861 8.34909367 20.69085837 8.35610962 22.08706665 C8.36808471 25.01413088 8.37179026 27.94107707 8.37060547 30.86816406 C8.37040236 34.61316908 8.39769372 38.35741451 8.43214989 42.10223961 C8.45442388 44.98651584 8.45844286 47.87060949 8.45738602 50.75496292 C8.45974165 52.13523601 8.46856324 53.51551416 8.48405075 54.89570236 C8.50371494 56.82929413 8.49534905 58.76310897 8.48583984 60.69677734 C8.48868988 61.7958139 8.49153992 62.89485046 8.49447632 64.02719116 C7.87739611 67.73709886 6.71352684 69.42533374 4 72 C2.68 72 1.36 72 0 72 C0 48.24 0 24.48 0 0 Z " fill="#727272" transform="translate(256,13)"/>
</svg>
