<?xml version="1.0" encoding="UTF-8"?>
<svg version="1.1" xmlns="http://www.w3.org/2000/svg" width="512" height="512">
<path d="M0 0 C1.85405196 -0.00874829 1.85405196 -0.00874829 3.74555951 -0.01767331 C5.10908388 -0.01404047 6.47260774 -0.01021612 7.8361311 -0.00622082 C9.29095172 -0.00924226 10.74577075 -0.01313171 12.20058697 -0.01781338 C16.19443831 -0.02810318 20.18819997 -0.02590906 24.18205869 -0.02163279 C28.49096896 -0.01916732 32.79985754 -0.02817755 37.10875988 -0.03567028 C45.54922163 -0.0484247 53.98965158 -0.05021001 62.43012134 -0.04787002 C69.29107989 -0.04608738 76.15202879 -0.04783534 83.01298618 -0.05209446 C84.47742279 -0.05298724 84.47742279 -0.05298724 85.97144398 -0.05389806 C87.95476419 -0.05510981 89.93808441 -0.05632394 91.92140462 -0.05754044 C110.52482873 -0.06841903 129.12823472 -0.06625209 147.73165985 -0.06015559 C164.74835207 -0.05498724 181.76498703 -0.06623916 198.78166793 -0.08525381 C216.25528851 -0.10462931 233.728882 -0.11288865 251.2025134 -0.10913056 C261.01222186 -0.10721794 270.8218816 -0.10971194 280.63158131 -0.1238451 C288.98355478 -0.13575625 297.33544955 -0.13716683 305.6874241 -0.12505493 C309.94776753 -0.11916414 314.20796696 -0.11807233 318.46830082 -0.13005733 C322.37116653 -0.14090899 326.27376791 -0.13782139 330.17662122 -0.12379565 C331.58574464 -0.12114672 332.99488872 -0.12352145 334.40399186 -0.13153151 C351.47815119 -0.22182442 351.47815119 -0.22182442 357.68591672 4.8017351 C362.30532054 9.40291419 362.46897141 14.97695229 362.51726818 21.15569019 C362.50336055 22.62811484 362.47953966 24.10047607 362.44628429 25.57259083 C362.39893493 27.8163163 362.40520114 30.05529607 362.41845226 32.29939747 C362.30979128 46.37489695 362.30979128 46.37489695 357.77392101 51.25447559 C351.13426804 56.36887202 344.35662429 55.81675315 336.2675581 55.76241016 C334.77673374 55.76702151 333.28591394 55.77337599 331.79510361 55.78131914 C327.70641042 55.79800355 323.61809111 55.78977028 319.52939665 55.77737427 C315.11693177 55.76832251 310.70453109 55.78229407 306.29207897 55.79329395 C297.6515271 55.81108197 289.0111142 55.80723806 280.37055688 55.79564339 C273.34892864 55.78661104 266.32733936 55.78538421 259.30570698 55.78973866 C258.30648234 55.79035159 257.3072577 55.79096452 256.27775352 55.79159603 C254.24788163 55.79287492 252.21800976 55.79417177 250.1881379 55.79548639 C231.1536648 55.80689287 212.11926876 55.79377711 193.0848083 55.77228492 C176.74912565 55.75441115 160.41355669 55.75752024 144.07787609 55.77595997 C125.11011717 55.79736075 106.14242576 55.80579711 87.17465645 55.79351091 C85.15254407 55.79223671 83.13043168 55.79097922 81.10831928 55.78973866 C80.11338466 55.78912155 79.11845004 55.78850445 78.09336589 55.78786865 C71.07891834 55.78441358 64.06451359 55.79024742 57.05007267 55.79965687 C48.50367459 55.8108693 39.95742348 55.8078526 31.41104227 55.78653389 C27.04976915 55.77601371 22.68874119 55.77191811 18.32746983 55.7851305 C14.3359011 55.79704013 10.34480502 55.79051581 6.35327924 55.76922029 C4.90857773 55.76474816 3.46383638 55.76703427 2.01916044 55.77672344 C-6.67684336 55.83057706 -11.57276383 55.75878624 -17.88818836 49.64558887 C-22.11243397 43.58327277 -21.92488077 37.36072738 -21.76807117 30.163167 C-21.72601175 28.1262191 -21.7270302 26.09256861 -21.73389149 24.05525684 C-21.62324743 12.91340061 -21.62324743 12.91340061 -18.22607899 7.25447559 C-12.67274907 1.82455301 -7.69051394 0.0062581 0 0 Z " fill="#231F20" transform="translate(150.22607898712158,227.7455244064331)"/>
<path d="M0 0 C1.25629536 -0.00445784 2.51259072 -0.00891569 3.80695564 -0.01350862 C5.20888508 -0.01341932 6.61081453 -0.01322946 8.01274395 -0.01294994 C9.49598607 -0.01624851 10.9792273 -0.01997407 12.46246737 -0.02409142 C16.54867357 -0.03412011 20.63486509 -0.0378296 24.72108185 -0.04048073 C29.12405436 -0.04438114 33.52701521 -0.05395956 37.92998028 -0.0626936 C48.5673346 -0.08246406 59.20468987 -0.09252434 69.84205797 -0.10142139 C74.84866796 -0.10580278 79.85527688 -0.11116992 84.86188602 -0.11641026 C101.4997212 -0.13342208 118.13755571 -0.14791743 134.77539825 -0.155159 C139.09382726 -0.15706895 143.41225625 -0.15898928 147.73068523 -0.16094494 C149.34071166 -0.16167055 149.34071166 -0.16167055 150.98326387 -0.16241082 C168.38047533 -0.17071553 185.77761814 -0.1960601 203.1747996 -0.22852562 C221.02686084 -0.26156908 238.87888715 -0.27960524 256.73097914 -0.28280324 C266.75807813 -0.2849707 276.78507696 -0.29375404 286.81214619 -0.31926441 C295.34947054 -0.34093427 303.8866704 -0.34904013 312.42401914 -0.33929763 C316.78122896 -0.3347423 321.13818173 -0.33671049 325.49535656 -0.35605907 C329.48335944 -0.3736157 333.4709163 -0.37275455 337.45892342 -0.35716178 C338.90240875 -0.35477426 340.34592435 -0.35916832 341.78936324 -0.37099043 C355.17340545 -0.47382827 355.17340545 -0.47382827 360.02536297 4.13422108 C364.3335183 9.02455956 365.19558691 11.9554538 365.26364422 18.33734608 C365.27171597 19.05275562 365.27978771 19.76816517 365.28810406 20.50525379 C365.30194255 22.02168831 365.31266577 23.53815396 365.32052898 25.05463123 C365.33769554 27.36172002 365.38157421 29.66735789 365.42575359 31.97406483 C365.43588509 33.44931473 365.44439976 34.9245768 365.45114422 36.39984608 C365.46865231 37.08443897 365.48616039 37.76903187 365.50419903 38.47437 C365.48176241 43.48827891 364.16255134 46.27774727 361.02536297 50.13422108 C355.93819054 53.97555536 352.42315946 55.25834573 346.11598873 55.26564884 C344.25337111 55.27141056 344.25337111 55.27141056 342.35312486 55.27728868 C340.96760538 55.27650839 339.58208595 55.27562959 338.19656658 55.27466297 C336.73053654 55.27724589 335.2645072 55.28025884 333.79847884 55.28366637 C329.75980738 55.29174834 325.72115368 55.29352661 321.68247509 55.29426384 C317.33061018 55.29611232 312.97875452 55.30365863 308.62689495 55.31039906 C299.10624634 55.32399151 289.58560193 55.33000855 280.06494522 55.33440971 C274.12213139 55.33717066 268.17931919 55.34140774 262.23650646 55.34591389 C245.78825387 55.35810786 229.34000258 55.36840685 212.89174557 55.37178898 C211.83864226 55.37200854 210.78553895 55.37222811 209.70052342 55.37245433 C208.11704997 55.37278175 208.11704997 55.37278175 206.50158715 55.37311578 C204.36237701 55.37355925 202.22316686 55.37400581 200.08395672 55.37445545 C199.02283054 55.37467688 197.96170436 55.37489831 196.86842284 55.37512645 C179.67236257 55.3790749 162.47634467 55.39652977 145.28030077 55.41981497 C127.63276664 55.44351899 109.98525378 55.4559904 92.33770347 55.4571569 C82.42628756 55.4580742 72.51492684 55.46384051 62.60352612 55.48197651 C54.16395956 55.4973647 45.72446525 55.50250555 37.28488734 55.49423841 C32.97822817 55.49032732 28.67171454 55.4912838 24.3650732 55.50529575 C20.42210694 55.51800724 16.47939599 55.5168615 12.53643021 55.50470504 C11.11042657 55.50274325 9.68440502 55.50584871 8.25842658 55.5145494 C-7.01838083 55.601856 -7.01838083 55.601856 -12.93557453 50.41547108 C-13.40221516 49.82765858 -13.86885578 49.23984608 -14.34963703 48.63422108 C-15.07280109 47.75250233 -15.07280109 47.75250233 -15.81057453 46.85297108 C-19.15009354 41.92213764 -18.23558715 35.66429123 -18.26980305 29.95721912 C-18.28692717 27.971062 -18.33081279 25.98519421 -18.37502766 23.99945545 C-18.42418234 16.55441116 -18.13193941 11.40051992 -13.97463703 5.13422108 C-9.45680988 0.83677574 -6.11424344 0.01004014 0 0 Z " fill="#242022" transform="translate(146.97463703155518,345.86577892303467)"/>
<path d="M0 0 C0.98578941 -0.00551503 0.98578941 -0.00551503 1.99149376 -0.01114148 C4.19779267 -0.02217129 6.40404447 -0.02602089 8.61036682 -0.02983093 C10.1905075 -0.03609594 11.77064671 -0.04274277 13.3507843 -0.04974365 C17.64618766 -0.06714559 21.9415799 -0.07770245 26.23700976 -0.08594918 C28.91939217 -0.09109934 31.60177111 -0.09717495 34.28415108 -0.10346031 C42.67334822 -0.12250715 51.06253657 -0.13674134 59.45175117 -0.14507228 C69.14260083 -0.15485444 78.83322266 -0.1812015 88.523992 -0.22157317 C96.01110387 -0.25169697 103.49815027 -0.26653745 110.98532158 -0.26985329 C115.4590513 -0.27220736 119.93253748 -0.28121431 124.40620232 -0.30631447 C128.61284984 -0.32953611 132.81909243 -0.33385248 137.02578735 -0.32355309 C138.57056586 -0.32305623 140.11536392 -0.32942078 141.66008186 -0.34310913 C143.7675294 -0.3607411 145.87350978 -0.3537671 147.98095703 -0.34057617 C149.16064277 -0.34296453 150.3403285 -0.34535288 151.55576229 -0.34781361 C155.21258521 0.25590405 156.36239088 1.20215407 158.55397034 4.14717102 C158.88397034 5.46717102 159.21397034 6.78717102 159.55397034 8.14717102 C165.82397034 8.14717102 172.09397034 8.14717102 178.55397034 8.14717102 C178.88397034 6.49717102 179.21397034 4.84717102 179.55397034 3.14717102 C181.85818392 0.6284236 183.25151657 0.18401448 186.65312004 -0.2303524 C187.88052973 -0.23148348 189.10793941 -0.23261456 190.37254333 -0.23377991 C191.05776444 -0.23845988 191.74298554 -0.24313985 192.44897091 -0.24796164 C194.74442168 -0.25992502 197.03927689 -0.25044948 199.33473206 -0.24101257 C200.98074187 -0.24507777 202.62674895 -0.25041936 204.27275085 -0.25694275 C208.74391657 -0.27063054 213.21487483 -0.26531112 217.68604422 -0.25580549 C222.36509863 -0.24821392 227.0441352 -0.25525335 231.72319031 -0.25996399 C239.58332001 -0.26542409 247.44336519 -0.2582244 255.30348206 -0.24394226 C264.38756656 -0.22762661 273.47144895 -0.23289533 282.55552852 -0.24942148 C290.35523134 -0.26304266 298.15487337 -0.26495257 305.95458424 -0.25710547 C310.61273518 -0.25243097 315.27079119 -0.25179775 319.928936 -0.26171494 C324.3104051 -0.2703911 328.69161421 -0.26435083 333.07305527 -0.24703217 C334.67986622 -0.2430703 336.2866991 -0.24419624 337.89350128 -0.25082016 C340.08977143 -0.2590382 342.28521249 -0.2487118 344.48143005 -0.23377991 C346.32367566 -0.23208329 346.32367566 -0.23208329 348.20313835 -0.2303524 C352.57519185 0.26222753 355.96518626 1.6640543 359.19850159 4.68232727 C362.94500917 9.58160642 363.72768293 12.29554321 363.79225159 18.35029602 C363.80032333 19.06570557 363.80839508 19.78111511 363.81671143 20.51820374 C363.83054992 22.03463826 363.84127314 23.5511039 363.84913635 25.06758118 C363.86630291 27.37466996 363.91018158 29.68030784 363.95436096 31.98701477 C363.96449246 33.46226468 363.97300713 34.93752674 363.97975159 36.41279602 C363.99725967 37.09738892 364.01476776 37.78198181 364.0328064 38.48731995 C364.01035935 43.50355851 362.66160732 46.27107043 359.55397034 50.14717102 C354.9208757 54.32825642 351.77495508 55.27121187 345.61615467 55.2813921 C343.74401191 55.28807886 343.74401191 55.28807886 341.83404809 55.29490072 C340.44135717 55.29481142 339.04866624 55.29462156 337.65597534 55.29434204 C336.1824082 55.29764064 334.70884196 55.3013662 333.23527688 55.30548352 C329.17573504 55.3155121 325.11620799 55.31922169 321.05665553 55.32187283 C316.68227485 55.32577334 312.30790591 55.33535184 307.93353271 55.34408569 C297.36439231 55.36385719 286.79525094 55.37391714 276.22609666 55.38281348 C271.25062658 55.38719522 266.27515757 55.39256233 261.29968834 55.39780235 C244.76308189 55.41481525 228.22647611 55.42930988 211.68986225 55.43655109 C207.39757601 55.43846103 203.10528977 55.44038136 198.81300354 55.44233704 C197.74615844 55.44282078 196.67931334 55.44330452 195.5801396 55.44380292 C178.29420998 55.45210493 161.00834953 55.47744448 143.72245011 55.50991771 C125.98112042 55.54297519 108.2398259 55.56099866 90.49846524 55.56419533 C80.53501834 55.56636164 70.5716723 55.57512787 60.60825539 55.60065651 C52.12368883 55.62234558 43.63924764 55.63042276 35.15465651 55.62068973 C30.82555193 55.61613983 26.49670609 55.6180712 22.16763687 55.63745117 C18.20296738 55.65504657 14.23874608 55.65411483 10.27407207 55.63855388 C8.84131821 55.63617228 7.4085336 55.64053006 5.97582678 55.65238253 C-1.89698128 55.713468 -7.79068321 55.58043931 -14.44602966 51.14717102 C-19.89623351 44.29947901 -19.69058828 38.41127677 -19.74119568 29.97016907 C-19.7583198 27.98401194 -19.80220542 25.99814415 -19.84642029 24.0124054 C-19.89547259 16.5828684 -19.64197476 11.38071536 -15.44602966 5.14717102 C-10.27583222 1.03211592 -6.49866495 0.02354932 0 0 Z " fill="#252122" transform="translate(148.44602966308594,110.85282897949219)"/>
<path d="M0 0 C3.27036728 -0.14510162 6.53991007 -0.23399373 9.8125 -0.3125 C10.74126953 -0.35439453 11.67003906 -0.39628906 12.62695312 -0.43945312 C15.17541265 -0.4854542 17.49566301 -0.48024413 20 0 C21.94921875 2.39453125 21.94921875 2.39453125 23 5 C26.61718282 7.41145521 28.28088336 7.25873591 32.58683777 7.2784729 C33.25910363 7.2842653 33.93136949 7.2900577 34.62400705 7.29602563 C36.88114091 7.31305794 39.1380707 7.31590485 41.39526367 7.31884766 C43.0114543 7.32814362 44.62764011 7.33831179 46.24382019 7.34928894 C50.63605421 7.37664049 55.02825608 7.39175358 59.42055297 7.40471697 C64.00902871 7.420325 68.59743855 7.4471226 73.18586731 7.4727478 C81.87682104 7.51957689 90.56778711 7.55630099 99.25880271 7.58942068 C109.15231601 7.62761291 119.04576318 7.67703064 128.93922079 7.72740483 C149.29276506 7.8307861 169.64635118 7.92002633 190 8 C190.02887236 11.81248426 190.04675492 15.6249407 190.0625 19.4375 C190.07087891 20.52611328 190.07925781 21.61472656 190.08789062 22.73632812 C190.09272461 24.28803711 190.09272461 24.28803711 190.09765625 25.87109375 C190.10551147 27.30859985 190.10551147 27.30859985 190.11352539 28.77514648 C190 31 190 31 189 32 C187.13385181 32.09759591 185.26395346 32.12371356 183.39525509 32.12304783 C182.17059219 32.12503888 180.9459293 32.12702993 179.6841554 32.12908131 C178.30757945 32.12622772 176.93100368 32.12328211 175.5544281 32.12025452 C174.10575993 32.12069009 172.65709183 32.12156474 171.20842415 32.12284368 C167.20872113 32.12509136 163.20904462 32.12106366 159.20934498 32.11606562 C154.90325552 32.11176519 150.59716767 32.11320725 146.29107666 32.1139679 C138.82421448 32.11449339 131.35736101 32.11134393 123.89050102 32.10573006 C113.09454598 32.0976185 102.29859516 32.09500019 91.50263739 32.09374207 C73.98881642 32.091551 56.47500009 32.08488945 38.96118164 32.07543945 C21.94360375 32.06626674 4.92602712 32.05918522 -12.09155273 32.05493164 C-13.13972546 32.05466892 -14.18789818 32.05440619 -15.26783372 32.05413551 C-20.52597209 32.05283051 -25.78411046 32.0515668 -31.04224885 32.05032361 C-74.69483581 32.0399493 -118.34741759 32.02225542 -162 32 C-162 24.08 -162 16.16 -162 8 C-159.08175385 7.98786972 -159.08175385 7.98786972 -156.10455322 7.97549438 C-137.79885312 7.89811794 -119.49322734 7.81051872 -101.18762589 7.71247292 C-91.77581664 7.66232622 -82.3640162 7.61588354 -72.95214844 7.578125 C-64.74988303 7.54520979 -56.54768551 7.50538118 -48.34549499 7.45720994 C-44.00149431 7.43194027 -39.6575387 7.41016036 -35.31348419 7.39665604 C-31.22592826 7.38383993 -27.13852682 7.36179043 -23.05105591 7.33261681 C-21.54984963 7.3235375 -20.04861848 7.31784997 -18.54738617 7.31578636 C-16.49934948 7.3124665 -14.45134727 7.2958178 -12.40338135 7.2784729 C-11.25667088 7.27294214 -10.1099604 7.26741138 -8.92850113 7.26171303 C-6.03987057 7.00356314 -4.37997353 6.62643383 -2 5 C-0.71745356 2.46229997 -0.71745356 2.46229997 0 0 Z " fill="#B0D6F9" transform="translate(307,119)"/>
<path d="M0 0 C44.69830255 -0.02278856 89.39660433 -0.04049724 134.09491154 -0.05106533 C139.36609013 -0.05231611 144.6372687 -0.05361042 149.90844727 -0.05493164 C150.95789074 -0.05519395 152.00733421 -0.05545626 153.08857901 -0.05572652 C170.10456959 -0.06008364 187.12055682 -0.06797142 204.13654541 -0.0771528 C221.58281148 -0.08648818 239.02907578 -0.09205536 256.47534424 -0.09408849 C267.24976139 -0.09546396 278.02416905 -0.09981584 288.79858328 -0.10791647 C296.1764217 -0.1131825 303.55425517 -0.11480462 310.93209534 -0.11350138 C315.19541173 -0.11285777 319.45871146 -0.11387802 323.72202492 -0.11920547 C327.61845996 -0.12403921 331.51486701 -0.12433882 335.41130329 -0.12089889 C336.82719384 -0.12047318 338.24308608 -0.12176913 339.65897327 -0.12488318 C341.5710632 -0.12884687 343.48316358 -0.12615649 345.39525509 -0.12304783 C346.46113006 -0.12342755 347.52700502 -0.12380727 348.62517923 -0.1241985 C351 0 351 0 352 1 C352 8.59 352 16.18 352 24 C235.84 24 119.68 24 0 24 C0 16.08 0 8.16 0 0 Z " fill="#B4DBFE" transform="translate(145,361)"/>
<path d="M0 0 C116.16 0 232.32 0 352 0 C352 7.59 352 15.18 352 23 C351 24 351 24 348.62517923 24.1241985 C347.55930426 24.12381878 346.4934293 24.12343906 345.39525509 24.12304783 C344.17059219 24.12503888 342.9459293 24.12702993 341.6841554 24.12908131 C340.30757945 24.12622772 338.93100368 24.12328211 337.5544281 24.12025452 C336.10575993 24.12069009 334.65709183 24.12156474 333.20842415 24.12284368 C329.20872113 24.12509136 325.20904462 24.12106366 321.20934498 24.11606562 C316.90325552 24.11176519 312.59716767 24.11320725 308.29107666 24.1139679 C300.82421448 24.11449339 293.35736101 24.11134393 285.89050102 24.10573006 C275.09454598 24.0976185 264.29859516 24.09500019 253.50263739 24.09374207 C235.98881642 24.091551 218.47500009 24.08488945 200.96118164 24.07543945 C183.94360375 24.06626674 166.92602712 24.05918522 149.90844727 24.05493164 C148.86027454 24.05466892 147.81210182 24.05440619 146.73216628 24.05413551 C141.47402791 24.05283051 136.21588954 24.0515668 130.95775115 24.05032361 C87.30516419 24.0399493 43.65258241 24.02225542 0 24 C0 16.08 0 8.16 0 0 Z " fill="#B3DAFE" transform="translate(145,244)"/>
<path d="M0 0 C12.30226508 -0.57945451 23.97794498 3.73644099 33.50390625 11.33203125 C43.32606239 20.35419278 48.51191047 31.29933523 49.76171875 44.5390625 C50.08415027 58.97171162 45.7379837 70.75333106 35.84375 81.2109375 C24.76868614 91.63691336 12.88046061 94.64592056 -1.91796875 94.42578125 C-14.72548162 93.97149406 -25.45033059 87.2782347 -34.15625 78.2109375 C-43.64778164 66.9054687 -45.42280775 53.85809502 -44.43115234 39.56103516 C-43.38319942 30.60224756 -39.09168838 22.86984971 -33.15625 16.2109375 C-32.44082031 15.32341797 -32.44082031 15.32341797 -31.7109375 14.41796875 C-23.79407246 5.40706457 -11.62999861 1.13771726 0 0 Z " fill="#221F21" transform="translate(44.15625,325.7890625)"/>
<path d="M0 0 C9.53507632 6.20284844 15.9111335 14.06893265 20.33203125 24.4921875 C20.74453125 25.4615625 21.15703125 26.4309375 21.58203125 27.4296875 C24.63071458 39.87847775 23.43061535 53.11196359 17.33203125 64.4921875 C9.90619528 75.96160846 -0.4084395 83.9259397 -13.66796875 87.4921875 C-28.26131282 88.98652744 -41.38798332 87.49424313 -53.3515625 78.46875 C-62.43809739 70.71531551 -69.63220366 60.54345318 -70.88916016 48.34570312 C-71.64451091 33.39297244 -69.67002392 21.21396362 -59.66796875 9.4921875 C-44.29316688 -6.76852303 -19.70278248 -11.13510108 0 0 Z " fill="#231F20" transform="translate(70.66796875,97.5078125)"/>
<path d="M0 0 C6.21733757 5.81959544 11.33432807 12.09066952 12.5 20.6875 C12 24 12 24 9.9765625 26.30859375 C7.52304324 29.64945298 7.63265291 31.29387502 7.875 35.375 C8.04787964 40.45189886 7.76535725 44.2556024 6 49 C7.485 49.495 7.485 49.495 9 50 C10.56940045 53.13880091 10.81860157 55.64194099 10 59 C3.65684764 70.36824709 -5.98230898 77.5350997 -18.1796875 81.75390625 C-31.53366009 85.25137526 -44.72432651 82.77387858 -56.72265625 76.3671875 C-67.0173356 70.18684827 -74.2345293 59.6530581 -77.53051758 48.14819336 C-79.85532307 37.51066682 -79.06943783 24.6177185 -74 15 C-73.57589844 14.14277344 -73.15179688 13.28554687 -72.71484375 12.40234375 C-66.38343212 0.70951392 -55.76259263 -6.43844926 -43.1875 -10.375 C-27.54509474 -13.4904998 -12.44094221 -9.84423465 0 0 Z " fill="#241F20" transform="translate(78,220)"/>
<path d="M0 0 C1.051875 0.70125 2.10375 1.4025 3.1875 2.125 C5.95243527 4.54141402 7.53067169 7.47513592 9.375 10.625 C11.67317035 14.44500127 13.19805059 16.6397645 17.4375 18.1875 C18.613125 18.455625 19.78875 18.72375 21 19 C21.05451714 21.04136395 21.09302485 23.08315856 21.125 25.125 C21.14820312 26.26195312 21.17140625 27.39890625 21.1953125 28.5703125 C20.99672109 32.05757767 20.2524801 34.7553862 19 38 C17.96488281 38.03609375 16.92976563 38.0721875 15.86328125 38.109375 C10.84166179 39.26703854 9.30973857 41.36691088 6.1875 45.25 C0.23335766 52.06068045 -4.69425211 56.58960975 -14.05078125 57.45703125 C-25.14536621 58.07120896 -32.87657892 55.92047444 -41.3125 48.4375 C-47.39319788 41.85110513 -50.23968777 34.22628299 -50.5625 25.3125 C-50.30307742 19.43692918 -49.04701909 15.00853764 -46 10 C-45.5875 9.30132812 -45.175 8.60265625 -44.75 7.8828125 C-40.73910376 1.84367895 -35.03106017 -2.24772904 -28.171875 -4.63671875 C-18.02607907 -6.33376735 -8.62618241 -5.94395295 0 0 Z " fill="#FE636E" transform="translate(65,230)"/>
<path d="M0 0 C7.36201247 5.07211745 13.32378897 12.00488732 15 21 C15.90930232 32.00106744 14.40465723 40.17484425 7.375 48.8125 C2.17009756 54.32989189 -5.11323383 58.58191762 -12.78515625 59.23828125 C-24.0760978 59.49397599 -31.73290377 57.11026511 -40.01953125 49.29296875 C-46.36703372 41.94388798 -48.38542066 33.9103647 -48.26953125 24.41796875 C-47.53280997 15.07548876 -42.90131482 8.14932621 -36 2 C-24.90063747 -5.63650723 -12.03002663 -6.40278778 0 0 Z " fill="#FDE359" transform="translate(63,111)"/>
<path d="M0 0 C7.99077459 4.66823195 12.71132061 11.79164871 15.62109375 20.53125 C16.82802462 28.95212644 16.12087291 36.26129429 11.62109375 43.53125 C11.20859375 44.22863281 10.79609375 44.92601562 10.37109375 45.64453125 C5.86177044 52.44694795 -0.44169154 56.01162327 -7.94140625 58.90625 C-17.73824272 60.68749299 -25.58031195 59.06049474 -34.06640625 53.84375 C-42.14979867 48.08803602 -45.74296721 41.2404817 -47.37890625 31.53125 C-48.77455165 21.69124508 -45.61942252 14.30130572 -39.80859375 6.39453125 C-29.37395564 -5.22471553 -13.63309606 -6.51781485 0 0 Z " fill="#21A6FD" transform="translate(62.37890625,345.46875)"/>
<path d="M0 0 C3.27036728 -0.14510162 6.53991007 -0.23399373 9.8125 -0.3125 C10.74126953 -0.35439453 11.67003906 -0.39628906 12.62695312 -0.43945312 C15.17541265 -0.4854542 17.49566301 -0.48024413 20 0 C21.94921875 2.39453125 21.94921875 2.39453125 23 5 C26.61718282 7.41145521 28.28088336 7.25873591 32.58683777 7.2784729 C33.25910363 7.2842653 33.93136949 7.2900577 34.62400705 7.29602563 C36.88114091 7.31305794 39.1380707 7.31590485 41.39526367 7.31884766 C43.0114543 7.32814362 44.62764011 7.33831179 46.24382019 7.34928894 C50.63605421 7.37664049 55.02825608 7.39175358 59.42055297 7.40471697 C64.00902871 7.420325 68.59743855 7.4471226 73.18586731 7.4727478 C81.87682104 7.51957689 90.56778711 7.55630099 99.25880271 7.58942068 C109.15231601 7.62761291 119.04576318 7.67703064 128.93922079 7.72740483 C149.29276506 7.8307861 169.64635118 7.92002633 190 8 C190 9.65 190 11.3 190 13 C73.84 13 -42.32 13 -162 13 C-162 11.35 -162 9.7 -162 8 C-160.7995574 7.99503478 -160.7995574 7.99503478 -159.57486343 7.98996925 C-140.1123879 7.90879012 -120.64999194 7.81671441 -101.18762589 7.71247292 C-91.77581664 7.66232622 -82.3640162 7.61588354 -72.95214844 7.578125 C-64.74988303 7.54520979 -56.54768551 7.50538118 -48.34549499 7.45720994 C-44.00149431 7.43194027 -39.6575387 7.41016036 -35.31348419 7.39665604 C-31.22592826 7.38383993 -27.13852682 7.36179043 -23.05105591 7.33261681 C-21.54984963 7.3235375 -20.04861848 7.31784997 -18.54738617 7.31578636 C-16.49934948 7.3124665 -14.45134727 7.2958178 -12.40338135 7.2784729 C-11.25667088 7.27294214 -10.1099604 7.26741138 -8.92850113 7.26171303 C-6.03987057 7.00356314 -4.37997353 6.62643383 -2 5 C-0.71745356 2.46229997 -0.71745356 2.46229997 0 0 Z " fill="#D5EBFE" transform="translate(307,119)"/>
<path d="M0 0 C116.16 0 232.32 0 352 0 C352 1.65 352 3.3 352 5 C235.84 5 119.68 5 0 5 C0 3.35 0 1.7 0 0 Z " fill="#D7ECFE" transform="translate(145,244)"/>
<path d="M0 0 C115.83 0 231.66 0 351 0 C351.33 1.65 351.66 3.3 352 5 C235.84 5 119.68 5 0 5 C0 3.35 0 1.7 0 0 Z " fill="#CFE1F3" transform="translate(145,361)"/>
<path d="M0 0 C1.61648437 0.01353516 1.61648437 0.01353516 3.265625 0.02734375 C4.08546875 0.03894531 4.9053125 0.05054687 5.75 0.0625 C6.245 1.0525 6.245 1.0525 6.75 2.0625 C5.698125 3.0215625 5.698125 3.0215625 4.625 4 C-2.42000729 11.06507854 -6.44397336 18.83152296 -6.63037109 28.83862305 C-6.60401387 40.97852121 -4.7147657 49.85283492 3.75 59.0625 C4.74 59.7225 5.73 60.3825 6.75 61.0625 C6.75 61.7225 6.75 62.3825 6.75 63.0625 C-4.36871707 63.68988842 -12.29386131 62.5737562 -21.0625 55.4375 C-26.57989189 50.23259756 -30.83191762 42.94926617 -31.48828125 35.27734375 C-31.74540812 23.92316261 -29.34043893 16.35193551 -21.47265625 8.04296875 C-14.96485402 2.24427678 -8.6115744 -0.09360407 0 0 Z " fill="#FBD201" transform="translate(46.25,106.9375)"/>
<path d="M0 0 C0.74507812 0.00451172 1.49015625 0.00902344 2.2578125 0.01367188 C4.0885764 0.02540754 5.91929873 0.0433415 7.75 0.0625 C6.98945312 0.64257812 6.22890625 1.22265625 5.4453125 1.8203125 C-1.04276152 7.21763784 -5.91742704 14.67308416 -7.25 23.0625 C-8.17800964 35.9088049 -7.27734521 46.41858073 1.375 56.6875 C3.44098176 58.9030551 5.1965298 60.36018653 7.75 62.0625 C-4.94564363 62.72526562 -13.65105994 62.29181443 -23.5625 53.5 C-29.64319788 46.91360513 -32.48968777 39.28878299 -32.8125 30.375 C-32.55307742 24.49942918 -31.29701909 20.07103764 -28.25 15.0625 C-27.8375 14.36382812 -27.425 13.66515625 -27 12.9453125 C-20.47499171 3.12072615 -11.30796305 -0.12986177 0 0 Z " fill="#F92B3A" transform="translate(47.25,224.9375)"/>
<path d="M0 0 C-1.299375 1.3921875 -1.299375 1.3921875 -2.625 2.8125 C-12.27960008 14.04944546 -13.74918537 24.56965138 -13.18798828 38.79980469 C-12.81924473 43.11554094 -11.36862267 46.43485659 -9 50 C-8.360625 51.051875 -7.72125 52.10375 -7.0625 53.1875 C-4.82141181 56.24352935 -2.4658877 59.12313102 0 62 C-4.68088391 64.34044196 -10.64347576 63.32598264 -15.5 61.875 C-23.7795409 58.76836598 -30.74659966 53.87969679 -35 46 C-38.22017734 37.97395194 -39.83517291 29.18664118 -36.8984375 20.88671875 C-32.4111879 11.25232991 -26.97816659 5.06311835 -17.1328125 0.8671875 C-11.47553463 -0.69879216 -5.81233865 -0.38183247 0 0 Z " fill="#0092FA" transform="translate(53,342)"/>
</svg>
